<svg width="21" height="21" viewBox="0 0 21 21" fill="none" xmlns="http://www.w3.org/2000/svg">
<path d="M10.7839 13.0812C11.3655 13.4908 11.9751 13.8353 12.6035 14.096C12.9937 14.2375 13.606 13.8368 14.0562 13.5421C14.1687 13.4685 14.2711 13.4015 14.3574 13.3512L14.3857 13.3353C14.8098 13.0972 15.2807 12.8327 15.8862 12.9602C16.4302 13.0719 18.2967 14.5428 18.8125 15.0641C19.1502 15.3993 19.3378 15.753 19.3659 16.1161C19.4222 17.466 17.612 18.9834 17.1806 19.2441C16.2614 19.9144 15.0327 19.9051 13.5508 19.2348C11.9657 18.5924 10.0711 17.2426 8.24218 15.6041C7.58748 15.0176 6.3302 13.7827 5.97239 13.3703C4.12469 11.3687 2.56775 9.21823 1.83617 7.47735C1.48914 6.7419 1.32031 6.06231 1.32031 5.45719C1.32031 4.86139 1.48914 4.33075 1.81741 3.87458C2.01437 3.53013 3.59946 1.64961 4.99696 1.69616C5.34399 1.7334 5.7004 1.91028 6.04743 2.24542C6.57266 2.75744 8.08271 4.61003 8.19526 5.15929C8.32367 5.75106 8.05741 6.21818 7.81753 6.63902L7.80134 6.66743C7.74727 6.76084 7.67397 6.87165 7.59384 6.99279L7.59383 6.99279C7.29861 7.43908 6.91064 8.02557 7.05006 8.39899C7.39803 9.25547 7.89513 10.0933 8.49446 10.866C9.1596 11.6613 10.2024 12.6716 10.7839 13.0812Z" stroke="white" stroke-width="1.64062"/>
</svg>
