<svg width="284" height="55" viewBox="0 0 284 55" fill="none" xmlns="http://www.w3.org/2000/svg">
<path d="M233.233 12.525C238.52 12.993 243.207 9.05654 243.67 3.7162C243.697 3.55103 243.697 3.38587 243.697 3.19318H238.138C237.566 5.45043 236.204 6.57906 233.233 6.57906C230.263 6.57906 228.71 5.45043 228.247 3.19318H222.688C222.906 8.58857 227.456 12.8003 232.797 12.5525C232.934 12.5525 233.07 12.525 233.233 12.525Z" fill="white"/>
<path d="M118.919 38.5936V15.4429H111.916V49.1917H119.219L133.335 25.6556V49.1917H140.338V15.4429H133.035L118.919 38.5936Z" fill="white"/>
<path d="M89.8434 15.7182C84.5841 15.4705 79.6246 18.3058 77.1176 22.958C77.4719 15.3053 79.0251 10.7633 88.0176 9.57958L102.024 7.68018L101.452 0.137634L86.8459 2.11962C74.2564 3.82632 70.7139 13.3508 70.7139 28.3258C70.7139 41.4289 76.7634 49.8248 87.9904 49.8248C98.9449 49.8248 104.885 41.539 104.885 31.8218C105.43 23.481 99.1629 16.2963 90.9062 15.7457C90.5792 15.7182 90.2249 15.7182 89.8434 15.7182ZM88.0176 42.3924C81.6684 42.3924 77.9351 37.8779 77.9351 31.0786V27.5826C79.2704 24.9399 82.8401 22.8754 88.0176 22.8754C93.4949 22.8754 97.7187 25.4079 97.7187 31.8218C97.7187 38.2357 94.3669 42.3924 88.0176 42.3924Z" fill="white"/>
<path d="M276.997 15.4429V28.0781H263.345V15.4429H256.341V49.1917H263.345V35.0425H276.997V49.1917H284V15.4429H276.997Z" fill="white"/>
<path d="M226.121 38.5936V15.4429H219.118V49.1917H226.421L240.536 25.6556V49.1917H247.539V15.4429H240.236L226.121 38.5936Z" fill="white"/>
<path d="M152.955 36.0886C152.192 39.8598 151.129 41.4564 149.003 41.4564C148.131 41.484 147.259 41.4014 146.415 41.1812V48.999C147.505 49.4945 148.676 49.7147 149.875 49.6596C153.254 49.7422 156.279 47.5951 157.369 44.3744C158.241 41.7317 158.786 38.9514 159.004 36.1712C159.467 31.6566 159.685 27.1421 159.685 22.6001H169.005V49.1917H176.008V15.4429H153.827C153.963 22.3523 153.663 29.2342 152.955 36.0886Z" fill="white"/>
<path d="M209.062 40.0525L209.171 26.6741C209.28 18.1957 203.994 14.6997 196.309 14.6997C189.66 14.1766 183.856 19.1591 183.338 25.8758C183.338 25.9034 183.338 25.9584 183.338 25.986H190.069C190.451 22.8753 192.958 21.8293 196.309 21.8293C199.743 21.8293 202.059 22.8753 202.413 26.3438L193.83 29.7572C187.971 32.1246 183.556 34.7672 183.556 40.3278C183.556 46.081 186.826 49.7697 193.339 49.7697C197.481 49.8798 201.296 47.4574 202.986 43.6311C203.34 47.7052 206.065 49.4945 210.806 49.4945H212.741V42.998H212.169C209.934 42.9704 209.062 42.1171 209.062 40.0525ZM195.901 42.6952C192.631 42.6952 190.233 41.8418 190.233 38.9239C190.233 36.3914 192.249 35.2627 195.71 33.8313L202.413 31.1061L202.332 40.2452C200.642 41.9519 198.299 42.8328 195.901 42.6952Z" fill="white"/>
<path d="M27.0048 54.9725C41.8288 55.1927 54.0096 42.8879 54.2276 27.5C53.9823 12.0846 41.8016 -0.220239 27.0048 -1.92563e-05C12.1808 -0.220239 -1.71661e-05 12.0846 -0.218018 27.5C-1.71661e-05 42.8879 12.1808 55.1927 27.0048 54.9725Z" fill="#FFC800"/>
<path d="M38.6949 47.9805C29.4572 53.3759 19.4292 54.3393 13.0254 51.1186C21.5274 56.2387 32.0187 56.2938 40.5752 51.3113C49.05 46.4665 54.282 37.1622 54.173 27.0871C53.7915 34.2993 47.9327 42.5851 38.6949 47.9805Z" fill="black"/>
<path d="M30.4384 2.03703C32.3186 5.31281 27.7951 11.5065 20.3286 15.8558C12.8621 20.2052 5.31385 21.0861 3.43359 17.8103C3.35184 17.6451 3.27009 17.48 3.21559 17.3148C2.86134 15.3053 3.40634 13.2683 4.71435 11.7267C4.93235 11.3964 5.1776 11.0936 5.42285 10.7633C7.60285 7.90039 10.3279 5.5055 13.4071 3.71621C16.4864 1.87187 19.8926 0.715709 23.4079 0.247741C23.8166 0.192686 24.1981 0.137631 24.5796 0.110103C26.5416 -0.247755 28.5581 0.275268 30.1114 1.59659C30.2204 1.73423 30.3566 1.87186 30.4384 2.03703Z" fill="black"/>
<path d="M42.0196 5.56054C45.2896 11.2863 38.6951 21.3063 27.2773 27.9679C15.8595 34.6296 3.95127 35.3729 0.708519 29.6471C0.163518 28.6837 -0.136232 27.6101 -0.190732 26.4815C-0.326983 30.4179 0.354269 34.3268 1.85302 37.9604C2.07102 38.511 2.31627 39.0615 2.58877 39.6121L2.61602 39.6947C3.65152 41.4289 5.12303 42.8328 6.86703 43.7412C13.2708 47.2097 24.0891 46.026 34.2261 40.1076C44.3358 34.2167 50.7669 25.3253 51.0121 18.003C51.1211 15.9935 50.6579 14.0115 49.6769 12.2773C49.2954 11.7267 48.9139 11.1762 48.5051 10.6531C46.1343 7.57005 43.1641 5.03752 39.7851 3.24823C40.7116 3.82631 41.4746 4.62461 42.0196 5.56054Z" fill="black"/>
<path d="M27.0048 54.9725C41.8288 55.1927 54.0096 42.8879 54.2276 27.5C53.9823 12.0846 41.8016 -0.220239 27.0048 -1.92563e-05C12.1808 -0.220239 -1.71661e-05 12.0846 -0.218018 27.5C-1.71661e-05 42.8879 12.1808 55.1927 27.0048 54.9725Z" fill="url(#paint0_radial_1266_13495)"/>
<defs>
<radialGradient id="paint0_radial_1266_13495" cx="0" cy="0" r="1" gradientUnits="userSpaceOnUse" gradientTransform="translate(26.9992 27.496) scale(27.2058 27.4919)">
<stop offset="0.5" stop-color="white" stop-opacity="0"/>
<stop offset="1" stop-color="white" stop-opacity="0.35"/>
</radialGradient>
</defs>
</svg>
