<svg width="121" height="60" viewBox="0 0 121 60" fill="none" xmlns="http://www.w3.org/2000/svg">
<g clip-path="url(#clip0_1263_5069)">
<path d="M8.224 41.514L12.166 41.509C15.878 41.504 17.853 39.999 18.103 36.996C18.242 35.333 17.877 34.153 17.009 33.472C16.141 32.791 14.775 32.46 12.914 32.46L8.972 32.465L8.224 41.514ZM9.433 26.883L12.036 26.878C14.631 26.873 16.3 26.432 17.048 25.559C17.775 24.7146 18.2117 23.6592 18.294 22.548C18.381 21.503 18.127 20.572 17.527 19.767C16.918 18.947 15.523 18.539 13.312 18.544L10.123 18.549L9.433 26.883ZM24.668 12.943L47.513 12.9L46.981 19.364L39.485 19.378L37.169 47.388L29.122 47.403L31.439 19.393L24.135 19.407L24.667 12.943H24.668ZM68.176 20.366L61.324 22.773C60.604 19.93 58.993 18.51 56.461 18.515C55.277 18.515 54.318 18.836 53.579 19.469C52.84 20.102 52.429 20.841 52.361 21.68C52.279 22.663 52.63 23.44 53.397 24.015C54.164 24.6 55.804 25.358 58.322 26.298C60.619 27.113 62.402 27.928 63.692 28.734C64.972 29.544 65.97 30.633 66.694 32.024C67.414 33.41 67.692 35.021 67.544 36.857C67.279 40.075 65.884 42.713 63.362 44.789C60.834 46.856 57.597 47.892 53.636 47.901C46.995 47.911 43.015 44.755 41.691 38.449L48.879 36.541C49.455 40.003 51.272 41.744 54.332 41.739C55.727 41.739 56.888 41.389 57.809 40.709C58.734 40.027 59.252 39.13 59.343 38.018C59.415 37.174 59.161 36.426 58.614 35.759C58.063 35.097 56.72 34.393 54.6 33.654C51.862 32.719 49.843 31.87 48.525 31.103C47.215 30.336 46.165 29.247 45.388 27.823C44.616 26.403 44.3 24.783 44.453 22.96C44.53 22.025 44.703 21.143 44.962 20.308L47.906 20.304L48.318 15.288C50.591 13.336 53.464 12.358 56.917 12.353C63.294 12.343 67.04 15.014 68.177 20.366H68.176ZM2.848 12.986L15.36 12.962C18.294 12.957 20.49 13.168 21.948 13.605C22.5199 13.7725 23.0609 14.0315 23.55 14.372L23.056 20.352L26.562 20.347C26.5862 20.9035 26.5748 21.461 26.528 22.016C26.212 25.871 24.265 28.346 20.683 29.449C24.72 30.82 26.557 33.635 26.207 37.893C26.02 40.133 25.305 42.032 24.054 43.571C22.797 45.115 21.32 46.146 19.618 46.664C17.925 47.177 15.552 47.436 12.506 47.446L0.211 47.46H0V47.446L0.1 46.246L0.345 43.293L0.446 42.089L0.696 39.078L0.786 37.984L1.036 34.982L1.136 33.779L1.381 30.815L1.477 29.631L1.722 26.672L1.822 25.468L2.062 22.49L2.153 21.363L2.403 18.371L2.503 17.181L2.748 14.223L2.848 12.986ZM107.556 5.145L78.223 13.768C77.6386 13.9367 77.0113 13.8682 76.4772 13.5773C75.943 13.2863 75.5452 12.7965 75.37 12.214C75.2002 11.6303 75.2682 11.0031 75.5592 10.4694C75.8502 9.93561 76.3404 9.53861 76.923 9.365L108.458 0.095L108.515 0.082L108.573 0.067L108.631 0.053L108.688 0.043L108.746 0.033L108.803 0.024L108.861 0.019L108.918 0.014L108.976 0.01L109.033 0H109.091C109.187 0 109.278 0.005 109.369 0.014L109.422 0.019L109.585 0.048C109.676 0.068 109.762 0.091 109.853 0.125C110.2 0.243196 110.513 0.442934 110.767 0.707431C111.021 0.971928 111.207 1.29346 111.311 1.645L120.581 33.179C120.751 33.7629 120.683 34.3901 120.391 34.9239C120.1 35.4577 119.61 35.8546 119.027 36.028C118.443 36.1975 117.816 36.1292 117.282 35.8381C116.749 35.547 116.352 35.0566 116.178 34.474L107.556 5.145Z" fill="#EE6800"/>
<path d="M88.6581 14.644L75.9551 18.377L79.6881 31.079L92.3901 27.347L88.6581 14.644Z" fill="#1B3B8D"/>
<path d="M104.986 9.84601L92.283 13.578L96.016 26.281L108.718 22.549L104.986 9.84601Z" fill="#00B7A7"/>
<path d="M93.452 30.974L80.749 34.706L84.481 47.408L97.184 43.676L93.452 30.974Z" fill="#00A2D4"/>
<path d="M109.786 26.177L97.083 29.91L100.815 42.612L113.518 38.88L109.786 26.177Z" fill="#818181"/>
<path d="M112.85 56.044L113.766 55.991C113.766 56.25 113.805 56.475 113.886 56.658C113.976 56.8545 114.132 57.0135 114.327 57.108C114.543 57.228 114.792 57.286 115.075 57.286C115.473 57.286 115.775 57.204 115.972 57.046C116.174 56.888 116.269 56.696 116.269 56.48C116.264 56.3152 116.201 56.1573 116.092 56.034C115.967 55.895 115.67 55.722 115.195 55.516C114.721 55.315 114.414 55.171 114.279 55.085C114.074 54.9657 113.9 54.7995 113.771 54.6C113.654 54.4082 113.594 54.1874 113.598 53.963C113.598 53.545 113.766 53.181 114.097 52.879C114.433 52.582 114.898 52.429 115.497 52.429C116.164 52.429 116.672 52.581 117.018 52.893C117.368 53.2 117.545 53.608 117.559 54.111L116.677 54.174C116.663 53.852 116.552 53.598 116.337 53.406C116.126 53.219 115.823 53.123 115.435 53.123C115.123 53.123 114.879 53.195 114.706 53.339C114.533 53.483 114.447 53.641 114.447 53.809C114.447 53.977 114.524 54.126 114.673 54.25C114.773 54.337 115.027 54.47 115.445 54.653C116.135 54.95 116.572 55.19 116.749 55.363C117.037 55.636 117.181 55.977 117.181 56.375C117.181 56.638 117.099 56.897 116.936 57.151C116.773 57.406 116.528 57.607 116.197 57.761C115.867 57.914 115.473 57.986 115.027 57.986C114.414 57.986 113.891 57.833 113.464 57.53C113.037 57.224 112.831 56.725 112.85 56.044ZM107.048 57.871L108.165 52.543H108.995L108.803 53.473C109.163 53.109 109.503 52.845 109.815 52.677C110.131 52.51 110.448 52.428 110.779 52.428C111.215 52.428 111.556 52.548 111.805 52.783C112.054 53.018 112.179 53.33 112.179 53.723C112.179 53.919 112.131 54.231 112.04 54.653L111.321 57.871H110.419L111.167 54.5C111.239 54.169 111.277 53.929 111.277 53.77C111.28 53.6889 111.264 53.6083 111.232 53.534C111.199 53.4596 111.151 53.3934 111.09 53.34C110.966 53.229 110.783 53.171 110.549 53.171C110.074 53.171 109.652 53.339 109.283 53.671C108.913 54.006 108.64 54.576 108.467 55.387L107.949 57.866H107.048V57.871ZM102.406 55.756C102.406 56.26 102.526 56.638 102.77 56.897C103.01 57.157 103.322 57.286 103.691 57.286C103.888 57.286 104.08 57.247 104.271 57.166C104.463 57.089 104.641 56.969 104.804 56.806C104.971 56.643 105.111 56.461 105.226 56.255C105.341 56.049 105.437 55.828 105.509 55.593C105.614 55.263 105.662 54.946 105.662 54.643C105.662 54.164 105.542 53.79 105.298 53.526C105.182 53.3975 105.04 53.2954 104.881 53.2268C104.722 53.1581 104.55 53.1244 104.377 53.128C104.089 53.128 103.83 53.195 103.595 53.33C103.36 53.464 103.149 53.66 102.957 53.924C102.759 54.1971 102.617 54.5067 102.54 54.835C102.449 55.175 102.406 55.487 102.406 55.756ZM101.5 55.842C101.5 54.807 101.807 53.948 102.416 53.262C102.919 52.702 103.581 52.423 104.401 52.423C105.043 52.423 105.557 52.625 105.95 53.023C106.343 53.425 106.54 53.963 106.54 54.643C106.54 55.253 106.415 55.823 106.17 56.346C105.948 56.8459 105.58 57.267 105.115 57.554C104.684 57.8293 104.183 57.9757 103.672 57.976C103.26 57.976 102.881 57.886 102.54 57.713C102.21 57.5467 101.939 57.284 101.763 56.96C101.583 56.6154 101.492 56.2309 101.5 55.842ZM99.0439 57.871L100.162 52.543H101.063L99.9459 57.871H99.0439ZM100.368 51.546L100.584 50.52H101.485L101.269 51.546H100.368ZM98.3249 57.132L98.1759 57.876C97.9696 57.9322 97.7568 57.9611 97.5429 57.962C97.1829 57.962 96.8959 57.871 96.6799 57.693C96.6012 57.6261 96.5386 57.5422 96.4971 57.4476C96.4555 57.353 96.436 57.2502 96.4399 57.147C96.4399 57.032 96.4839 56.758 96.5699 56.341L97.2169 53.239H96.4979L96.6419 52.539H97.3619L97.6349 51.234L98.6749 50.611L98.2629 52.543H99.1549L99.0009 53.243H98.1189L97.5049 56.193C97.4279 56.566 97.3899 56.792 97.3899 56.863C97.3899 56.969 97.4189 57.056 97.4809 57.108C97.5429 57.166 97.6439 57.195 97.7829 57.195C97.9849 57.19 98.1669 57.171 98.3249 57.132ZM94.1289 56.907C93.4909 57.627 92.8339 57.981 92.1679 57.981C91.7549 57.981 91.4239 57.866 91.1699 57.631C91.0482 57.523 90.9514 57.3899 90.886 57.241C90.8205 57.092 90.7881 56.9307 90.7909 56.768C90.7909 56.542 90.8539 56.158 90.9789 55.612L91.6789 52.534H92.5889L91.8129 55.986C91.7566 56.2058 91.7244 56.4312 91.7169 56.658C91.7129 56.7386 91.7277 56.8191 91.7601 56.8931C91.7926 56.967 91.8418 57.0324 91.9039 57.084C92.0289 57.185 92.2109 57.238 92.4509 57.238C92.7099 57.238 92.9589 57.175 93.2079 57.051C93.4521 56.9294 93.6691 56.7597 93.8459 56.552C94.0323 56.3308 94.1798 56.0796 94.2819 55.809C94.3928 55.496 94.4797 55.1751 94.5419 54.849L95.0499 52.534H95.9509L94.7709 57.861H93.9329L94.1289 56.907ZM88.1539 57.871L89.6889 50.519H90.5899L89.0559 57.871H88.1539ZM83.5639 55.756C83.5639 56.26 83.6839 56.638 83.9289 56.897C84.1689 57.157 84.4809 57.286 84.8499 57.286C85.0469 57.286 85.2379 57.247 85.4299 57.166C85.6219 57.089 85.7999 56.969 85.9619 56.806C86.1299 56.643 86.2689 56.461 86.3839 56.255C86.5026 56.046 86.5962 55.8238 86.6629 55.593C86.7679 55.263 86.8209 54.946 86.8209 54.643C86.8209 54.164 86.7009 53.79 86.4569 53.526C86.341 53.3974 86.1987 53.2953 86.0398 53.2266C85.8809 53.1579 85.709 53.1243 85.5359 53.128C85.2479 53.128 84.9889 53.195 84.7539 53.33C84.5004 53.4789 84.2826 53.6817 84.1159 53.924C83.9178 54.197 83.776 54.5067 83.6989 54.835C83.6079 55.175 83.5649 55.487 83.5649 55.756H83.5639ZM82.6639 55.842C82.6639 54.807 82.9699 53.948 83.5789 53.262C84.0829 52.702 84.7449 52.423 85.5649 52.423C86.2019 52.423 86.7199 52.625 87.1129 53.023C87.5069 53.425 87.7029 53.963 87.7029 54.643C87.7029 55.253 87.5789 55.823 87.3339 56.346C87.0889 56.873 86.7339 57.276 86.2789 57.554C85.8479 57.8292 85.3473 57.9756 84.8359 57.976C84.4229 57.976 84.0439 57.886 83.7039 57.713C83.3639 57.535 83.1039 57.286 82.9269 56.96C82.7499 56.643 82.6629 56.27 82.6629 55.842H82.6639ZM77.4549 56.044L78.3709 55.991C78.3709 56.25 78.4099 56.475 78.4909 56.658C78.5813 56.8549 78.7377 57.0141 78.9329 57.108C79.1479 57.228 79.3979 57.286 79.6809 57.286C80.0789 57.286 80.3809 57.204 80.5769 57.046C80.7789 56.888 80.8749 56.696 80.8749 56.48C80.8697 56.3151 80.8067 56.1572 80.6969 56.034C80.5729 55.895 80.2749 55.722 79.7999 55.516C79.3259 55.315 79.0189 55.171 78.8849 55.085C78.6792 54.9659 78.5048 54.7997 78.3759 54.6C78.2596 54.4082 78.2 54.1873 78.2039 53.963C78.2039 53.545 78.3709 53.181 78.7019 52.879C79.0379 52.582 79.5029 52.429 80.1019 52.429C80.7689 52.429 81.2769 52.581 81.6219 52.893C81.9719 53.2 82.1499 53.608 82.1649 54.111L81.2819 54.174C81.2679 53.852 81.1579 53.598 80.9419 53.406C80.7309 53.219 80.4289 53.123 80.0399 53.123C79.7279 53.123 79.4839 53.195 79.3109 53.339C79.1389 53.483 79.0519 53.641 79.0519 53.809C79.0519 53.977 79.1289 54.126 79.2779 54.25C79.3779 54.337 79.6329 54.47 80.0499 54.653C80.7399 54.95 81.1769 55.19 81.3539 55.363C81.6419 55.636 81.7859 55.977 81.7859 56.375C81.7859 56.638 81.7039 56.897 81.5409 57.151C81.3779 57.406 81.1339 57.607 80.8029 57.761C80.4719 57.914 80.0789 57.986 79.6329 57.986C79.0189 57.986 78.4959 57.833 78.0689 57.53C77.6379 57.224 77.4359 56.725 77.4549 56.044ZM73.0529 55.929L73.9689 56.019C73.7389 56.686 73.4179 57.176 72.9959 57.497C72.5865 57.816 72.0809 57.9867 71.5619 57.981C70.9819 57.981 70.5119 57.794 70.1519 57.421C69.7919 57.046 69.6149 56.523 69.6149 55.852C69.6149 55.272 69.7299 54.702 69.9599 54.14C70.1899 53.579 70.5209 53.152 70.9529 52.86C71.3839 52.567 71.8729 52.423 72.4249 52.423C72.9949 52.423 73.4509 52.586 73.7869 52.908C74.1229 53.228 74.2899 53.656 74.2899 54.188L73.3989 54.25C73.3939 53.915 73.2979 53.646 73.1059 53.46C72.9139 53.267 72.6599 53.171 72.3439 53.171C71.9954 53.1649 71.6569 53.2882 71.3939 53.517C71.1259 53.747 70.9139 54.097 70.7659 54.562C70.6119 55.032 70.5359 55.482 70.5359 55.914C70.5359 56.37 70.6359 56.71 70.8379 56.936C71.0389 57.161 71.2879 57.276 71.5809 57.276C71.8779 57.276 72.1569 57.166 72.4299 56.94C72.6839 56.725 72.8949 56.384 73.0529 55.929ZM67.0829 57.871L68.1999 52.543H69.1019L67.9849 57.871H67.0829ZM68.4069 51.546L68.6219 50.52H69.5239L69.3079 51.546H68.4069ZM66.3639 57.132L66.2149 57.876C66.0086 57.9322 65.7958 57.9611 65.5819 57.962C65.2219 57.962 64.9349 57.871 64.7239 57.693C64.6452 57.6261 64.5826 57.5422 64.5411 57.4476C64.4995 57.353 64.4799 57.2502 64.4839 57.147C64.4839 57.032 64.5269 56.758 64.6139 56.341L65.2609 53.239H64.5409L64.6849 52.539H65.4049L65.6779 51.234L66.7179 50.611L66.3059 52.543H67.1979L67.0449 53.243H66.1619L65.5439 56.193C65.4669 56.566 65.4289 56.792 65.4289 56.863C65.4289 56.969 65.4569 57.056 65.5189 57.108C65.5819 57.166 65.6829 57.195 65.8219 57.195C66.0043 57.1933 66.186 57.1722 66.3639 57.132ZM59.1989 56.044L60.1149 55.991C60.1149 56.25 60.1539 56.475 60.2349 56.658C60.3251 56.8547 60.4811 57.0138 60.6759 57.108C60.8919 57.228 61.1419 57.286 61.4239 57.286C61.8219 57.286 62.1239 57.204 62.3209 57.046C62.5229 56.888 62.6179 56.696 62.6179 56.48C62.613 56.3152 62.5503 56.1573 62.4409 56.034C62.3159 55.895 62.0189 55.722 61.5439 55.516C61.0699 55.315 60.7629 55.171 60.6279 55.085C60.4226 54.9658 60.2485 54.7996 60.1199 54.6C60.0036 54.4081 59.944 54.1873 59.9479 53.963C59.9479 53.545 60.1149 53.181 60.4459 52.879C60.7819 52.582 61.2469 52.429 61.8459 52.429C62.5129 52.429 63.0209 52.581 63.3659 52.893C63.7159 53.2 63.8939 53.608 63.9079 54.111L63.0259 54.174C63.0119 53.852 62.9009 53.598 62.6859 53.406C62.4749 53.219 62.1729 53.123 61.7839 53.123C61.4719 53.123 61.2279 53.195 61.0549 53.339C60.8829 53.483 60.7959 53.641 60.7959 53.809C60.7959 53.977 60.8729 54.126 61.0219 54.25C61.1219 54.337 61.3769 54.47 61.7939 54.653C62.4839 54.95 62.9209 55.19 63.0979 55.363C63.3859 55.636 63.5299 55.977 63.5299 56.375C63.5299 56.638 63.4479 56.897 63.2849 57.151C63.1219 57.406 62.8779 57.607 62.5469 57.761C62.2159 57.914 61.8229 57.986 61.3769 57.986C60.7629 57.986 60.2399 57.833 59.8129 57.53C59.3819 57.224 59.1749 56.725 59.1989 56.044ZM56.8109 57.871L57.9289 52.543H58.8299L57.7129 57.871H56.8109ZM58.1399 51.546L58.3549 50.52H59.2569L59.0409 51.546H58.1399ZM52.2029 55.516C52.2029 55.881 52.2409 56.154 52.3079 56.341C52.4089 56.601 52.5529 56.797 52.7399 56.931C52.9269 57.065 53.1329 57.132 53.3589 57.132C53.6559 57.132 53.9529 57.027 54.2509 56.821C54.5479 56.61 54.7829 56.288 54.9699 55.852C55.1519 55.416 55.2429 54.998 55.2429 54.596C55.2429 54.159 55.1229 53.809 54.8789 53.55C54.7647 53.4251 54.6252 53.3259 54.4696 53.259C54.3141 53.1921 54.1462 53.159 53.9769 53.162C53.7569 53.162 53.5409 53.219 53.3349 53.339C53.1046 53.4756 52.9067 53.6605 52.7549 53.881C52.5769 54.121 52.4379 54.413 52.3469 54.749C52.2469 55.085 52.2029 55.339 52.2029 55.516ZM51.0619 58.35L51.9869 58.432C51.9819 58.642 52.0069 58.796 52.0639 58.902C52.1238 59.0098 52.2182 59.0944 52.3319 59.142C52.4949 59.214 52.7059 59.252 52.9649 59.252C53.5119 59.252 53.9049 59.108 54.1449 58.825C54.3029 58.633 54.4469 58.221 54.5809 57.583L54.6729 57.152C54.2029 57.632 53.6989 57.866 53.1669 57.866C52.6299 57.866 52.1789 57.669 51.8189 57.271C51.4549 56.878 51.2769 56.312 51.2769 55.588C51.2769 54.988 51.4209 54.442 51.7039 53.938C51.9919 53.435 52.3279 53.061 52.7209 52.802C53.1139 52.548 53.5209 52.419 53.9389 52.419C54.6339 52.419 55.1709 52.745 55.5499 53.397L55.7369 52.534H56.5769L55.4929 57.679C55.3769 58.245 55.2239 58.686 55.0329 59.003C54.8426 59.3184 54.5661 59.5727 54.2359 59.736C53.8709 59.9165 53.468 60.0071 53.0609 60C52.6349 60 52.2649 59.947 51.9539 59.832C51.6469 59.722 51.4159 59.559 51.2629 59.348C51.1115 59.1351 51.0326 58.8792 51.0379 58.618C51.0429 58.542 51.0479 58.451 51.0619 58.35ZM46.4679 55.756C46.4679 56.26 46.5879 56.638 46.8319 56.897C47.0719 57.157 47.3839 57.286 47.7519 57.286C47.9489 57.286 48.1419 57.247 48.3329 57.166C48.5249 57.089 48.7029 56.969 48.8649 56.806C49.0329 56.643 49.1719 56.461 49.2869 56.255C49.4019 56.049 49.4979 55.828 49.5699 55.593C49.6759 55.263 49.7279 54.946 49.7279 54.643C49.7279 54.164 49.6079 53.79 49.3639 53.526C49.2481 53.3975 49.106 53.2955 48.9473 53.2268C48.7885 53.1581 48.6168 53.1244 48.4439 53.128C48.1559 53.128 47.8969 53.195 47.6619 53.33C47.4093 53.4802 47.1918 53.6827 47.0239 53.924C46.8319 54.184 46.6929 54.485 46.6069 54.835C46.521 55.1347 46.4739 55.4443 46.4669 55.756H46.4679ZM45.5659 55.842C45.5659 54.807 45.8729 53.948 46.4819 53.262C46.9859 52.702 47.6469 52.423 48.4669 52.423C49.1099 52.423 49.6229 52.625 50.0169 53.023C50.4089 53.425 50.6069 53.963 50.6069 54.643C50.6069 55.253 50.4809 55.823 50.2369 56.346C49.9919 56.873 49.6369 57.276 49.1819 57.554C48.7506 57.8294 48.2496 57.9758 47.7379 57.976C47.3259 57.976 46.9479 57.886 46.6069 57.713C46.2669 57.535 46.0069 57.286 45.8299 56.96C45.6519 56.643 45.5659 56.27 45.5659 55.842ZM43.0629 57.871L44.5969 50.519H45.4989L43.9639 57.871H43.0629ZM34.7809 57.871L37.0969 55.171L35.7689 52.538H36.7759L37.2359 53.483C37.4039 53.838 37.5529 54.169 37.6779 54.49L39.2079 52.538H40.3149L38.0949 55.228L39.4419 57.866H38.4349L37.8889 56.778C37.7789 56.552 37.6489 56.269 37.5089 55.934L35.9179 57.866H34.7799V57.871H34.7809ZM30.6959 54.725H33.6969C33.7019 54.634 33.7019 54.567 33.7019 54.524C33.7019 54.073 33.5869 53.723 33.3619 53.484C33.1319 53.244 32.8389 53.124 32.4789 53.124C32.0909 53.124 31.7359 53.258 31.4149 53.521C31.0939 53.79 30.8539 54.193 30.6949 54.725H30.6959ZM33.3469 56.063L34.2299 56.144C34.0999 56.581 33.8079 56.998 33.3519 57.391C32.8969 57.785 32.3499 57.981 31.7169 57.981C31.3239 57.981 30.9589 57.89 30.6289 57.708C30.3005 57.5284 30.037 57.2499 29.8759 56.912C29.6978 56.5427 29.6087 56.1369 29.6159 55.727C29.6159 55.147 29.7509 54.586 30.0189 54.039C30.2879 53.493 30.6379 53.089 31.0649 52.821C31.4832 52.5596 31.9667 52.4217 32.4599 52.423C33.0979 52.423 33.6059 52.62 33.9849 53.013C34.3649 53.406 34.5549 53.943 34.5549 54.62C34.5549 54.879 34.5319 55.147 34.4839 55.42H30.5469C30.5319 55.526 30.5269 55.617 30.5269 55.703C30.5269 56.202 30.6429 56.581 30.8729 56.845C31.1029 57.108 31.3859 57.238 31.7169 57.238C32.0289 57.238 32.3359 57.138 32.6369 56.931C32.9449 56.734 33.1799 56.441 33.3469 56.063ZM27.0799 57.871L28.6139 50.519H29.5159L27.9809 57.871H27.0799ZM22.7929 55.694C22.7929 56.092 22.8219 56.365 22.8789 56.519C22.9609 56.734 23.0989 56.912 23.2909 57.041C23.4829 57.176 23.7039 57.243 23.9579 57.243C24.4809 57.243 24.9029 56.95 25.2279 56.365C25.5499 55.78 25.7129 55.181 25.7129 54.572C25.7129 54.121 25.6079 53.776 25.3869 53.526C25.2884 53.4085 25.1649 53.3145 25.0255 53.2506C24.8861 53.1868 24.7342 53.1548 24.5809 53.157C24.3509 53.157 24.1359 53.219 23.9389 53.339C23.7196 53.4818 23.5317 53.6679 23.3869 53.886C23.2021 54.1604 23.0598 54.4611 22.9649 54.778C22.8499 55.128 22.7929 55.435 22.7929 55.694ZM21.0039 59.914L22.5439 52.538H23.3829L23.2289 53.286C23.5409 52.966 23.8189 52.74 24.0639 52.616C24.3079 52.49 24.5669 52.428 24.8449 52.428C25.3539 52.428 25.7749 52.615 26.1109 52.98C26.4469 53.349 26.6149 53.876 26.6149 54.562C26.6223 55.0803 26.5278 55.5951 26.3369 56.077C26.1539 56.533 25.9289 56.897 25.6599 57.176C25.4279 57.427 25.1516 57.6332 24.8449 57.784C24.5819 57.9121 24.2935 57.9795 24.0009 57.981C23.3589 57.981 22.8649 57.655 22.5099 57.008L21.9059 59.914H21.0039ZM12.8709 57.871L13.9879 52.543H14.8899L14.7079 53.426C15.0429 53.046 15.3449 52.788 15.6139 52.649C15.8829 52.505 16.1699 52.433 16.4819 52.433C16.8119 52.433 17.0909 52.519 17.3119 52.697C17.5319 52.869 17.6809 53.114 17.7479 53.43C18.0209 53.095 18.3039 52.845 18.6059 52.682C18.9079 52.514 19.2199 52.432 19.5509 52.432C19.9969 52.432 20.3279 52.538 20.5529 52.749C20.7729 52.96 20.8889 53.253 20.8889 53.636C20.8889 53.799 20.8509 54.073 20.7689 54.452L20.0399 57.88H19.1389L19.8769 54.365C19.9399 54.078 19.9729 53.871 19.9729 53.747C19.9763 53.6701 19.963 53.5934 19.934 53.5222C19.905 53.4509 19.861 53.3867 19.8049 53.334C19.6949 53.234 19.5369 53.186 19.3349 53.186C19.0619 53.186 18.7889 53.267 18.5049 53.43C18.2332 53.5826 18.0069 53.8044 17.8489 54.073C17.6949 54.337 17.5559 54.744 17.4359 55.296L16.8939 57.88H15.9929L16.7459 54.289C16.7989 54.044 16.8269 53.871 16.8269 53.766C16.8306 53.6889 16.8179 53.612 16.7899 53.5401C16.7618 53.4683 16.7189 53.4031 16.6639 53.349C16.6079 53.2953 16.5417 53.2532 16.4692 53.2252C16.3968 53.1972 16.3195 53.1839 16.2419 53.186C15.9829 53.186 15.7149 53.267 15.4319 53.43C15.1484 53.5955 14.9111 53.8297 14.7419 54.111C14.5639 54.404 14.4199 54.816 14.3049 55.358L13.7769 57.876H12.8709V57.871ZM8.22991 55.756C8.22991 56.26 8.34991 56.638 8.59491 56.897C8.83491 57.157 9.14591 57.286 9.51491 57.286C9.71191 57.286 9.90391 57.247 10.0949 57.166C10.2869 57.089 10.4649 56.969 10.6279 56.806C10.7959 56.643 10.9349 56.461 11.0499 56.255C11.1649 56.049 11.2599 55.828 11.3329 55.593C11.4379 55.263 11.4859 54.946 11.4859 54.643C11.4859 54.164 11.3659 53.79 11.1219 53.526C11.0061 53.3975 10.864 53.2955 10.7053 53.2268C10.5465 53.1581 10.3748 53.1244 10.2019 53.128C9.91291 53.128 9.65391 53.195 9.41891 53.33C9.1663 53.4798 8.94901 53.6824 8.78191 53.924C8.58991 54.184 8.45091 54.485 8.36391 54.835C8.28024 55.135 8.23521 55.4445 8.22991 55.756ZM7.32891 55.842C7.32891 54.807 7.63591 53.948 8.24491 53.262C8.74791 52.702 9.40991 52.423 10.2299 52.423C10.8679 52.423 11.3849 52.625 11.7789 53.023C12.1719 53.425 12.3689 53.963 12.3689 54.643C12.3689 55.253 12.2439 55.823 11.9989 56.346C11.7549 56.873 11.3989 57.276 10.9439 57.554C10.5129 57.8292 10.0123 57.9756 9.50091 57.976C9.08891 57.976 8.70991 57.886 8.36891 57.713C8.02891 57.535 7.76891 57.286 7.59191 56.96C7.41491 56.643 7.32891 56.27 7.32891 55.842ZM5.61191 55.282L6.58491 55.416C6.27791 56.264 5.82791 56.907 5.23791 57.343C4.66591 57.7726 3.96826 58.0018 3.25291 57.995C2.36091 57.995 1.65091 57.722 1.12291 57.18C0.600914 56.634 0.336914 55.852 0.336914 54.84C0.336914 53.517 0.734914 52.423 1.53091 51.555C2.24091 50.783 3.12291 50.4 4.17291 50.4C4.95491 50.4 5.58291 50.61 6.06691 51.028C6.55191 51.445 6.82991 52.006 6.90691 52.711L5.99091 52.792C5.88991 52.26 5.68891 51.867 5.38591 51.603C5.08391 51.339 4.69091 51.21 4.21591 51.21C3.31491 51.21 2.58591 51.608 2.03491 52.409C1.55491 53.099 1.30991 53.915 1.30991 54.859C1.30991 55.612 1.49691 56.193 1.86691 56.586C2.23591 56.984 2.71991 57.186 3.31991 57.186C3.82791 57.186 4.28791 57.017 4.69991 56.691C5.12291 56.355 5.41991 55.885 5.61191 55.281V55.282Z" fill="#EE6800"/>
</g>
<defs>
<clipPath id="clip0_1263_5069">
<rect width="121" height="60" fill="white"/>
</clipPath>
</defs>
</svg>
