<svg width="276" height="75" viewBox="0 0 276 75" fill="none" xmlns="http://www.w3.org/2000/svg">
<path d="M275.775 0H0V74.4908H275.775V0Z" fill="#E41F26"/>
<path d="M169.345 30.8983H161.2V57.1643H169.345V30.8983Z" fill="white"/>
<path fill-rule="evenodd" clip-rule="evenodd" d="M41.3364 30.9022H49.1378L49.4197 33.8142C50.2501 32.8062 51.3083 31.9642 52.5905 31.2922C53.8727 30.6202 55.3751 30.2842 57.113 30.2842C58.1673 30.2842 59.1097 30.3924 59.94 30.6202C60.7665 30.8442 61.4964 31.1339 62.1182 31.4892C62.74 31.8445 63.2846 32.2385 63.7558 32.6672C64.2269 33.0958 64.6131 33.5168 64.9144 33.9262C66.0112 32.7714 67.3359 31.8754 68.9 31.2382C70.4642 30.6048 72.094 30.2881 73.7894 30.2881C77.1842 30.2881 79.7756 31.2382 81.5638 33.1422C83.3519 35.0462 84.2479 37.6415 84.2479 40.9281V57.1681H76.1067V42.2142C76.1067 40.6462 75.7552 39.4335 75.06 38.5761C74.3649 37.7149 73.3144 37.2862 71.924 37.2862C70.3406 37.2862 69.0777 37.8307 68.1353 38.9121C67.193 39.9974 66.7257 41.3761 66.7257 43.0561V57.1681H58.8664V42.2142C58.8664 40.6462 58.5188 39.4335 57.8197 38.5761C57.1207 37.7149 56.0741 37.2862 54.6799 37.2862C53.1351 37.2862 51.8799 37.8307 50.9182 38.9121C49.9566 39.9974 49.4777 41.3761 49.4777 43.0561V57.1681H41.3364V30.9022Z" fill="white"/>
<path fill-rule="evenodd" clip-rule="evenodd" d="M105.508 51.0622C106.524 51.0622 107.432 50.8652 108.223 50.4752C109.015 50.0812 109.683 49.5483 110.232 48.8801C110.776 48.2081 111.182 47.4512 111.444 46.6131C111.707 45.7712 111.838 44.9061 111.838 44.0101C111.838 43.1141 111.707 42.2451 111.444 41.407C111.182 40.5689 110.776 39.8197 110.232 39.167C109.683 38.5143 109.015 37.9891 108.223 37.599C107.436 37.2089 106.528 37.012 105.508 37.012C104.493 37.012 103.577 37.2051 102.766 37.599C101.955 37.9891 101.287 38.5143 100.758 39.167C100.229 39.8197 99.8273 40.5689 99.5454 41.407C99.2596 42.2451 99.1205 43.1141 99.1205 44.0101C99.1205 44.9061 99.2596 45.7712 99.5454 46.6131C99.8273 47.4512 100.233 48.2081 100.758 48.8801C101.287 49.5521 101.955 50.0851 102.766 50.4752C103.577 50.8652 104.493 51.0622 105.508 51.0622ZM91.2612 44.0062C91.2612 42.0636 91.6088 40.2445 92.304 38.5452C92.9992 36.8498 93.9724 35.3629 95.216 34.0922C96.4596 32.8255 97.9581 31.8252 99.7114 31.0953C101.465 30.3692 103.392 30.0023 105.505 30.0023C107.617 30.0023 109.537 30.3654 111.274 31.0953C113.005 31.8214 114.495 32.8216 115.739 34.0922C116.983 35.3629 117.952 36.8459 118.651 38.5452C119.346 40.2445 119.698 42.0636 119.698 44.0062C119.698 45.9488 119.346 47.7679 118.651 49.4672C117.956 51.1665 116.983 52.6534 115.739 53.9201C114.495 55.1907 113.005 56.1987 111.274 56.9441C109.537 57.6895 107.617 58.068 105.505 58.068C103.392 58.068 101.461 57.6934 99.7114 56.9441C97.9581 56.1987 96.4596 55.1907 95.216 53.9201C93.9724 52.6534 93.003 51.1665 92.304 49.4672C91.6088 47.7679 91.2612 45.945 91.2612 44.0062Z" fill="white"/>
<path fill-rule="evenodd" clip-rule="evenodd" d="M135.023 50.2705C135.474 50.4558 135.973 50.5987 136.521 50.6914C137.069 50.7841 137.83 50.8305 138.811 50.8305C140.959 50.8305 142.631 50.1392 143.816 48.7565C145.002 47.3778 145.597 45.5665 145.597 43.3265C145.597 42.5038 145.493 41.7005 145.284 40.9165C145.076 40.1325 144.767 39.4335 144.353 38.8156C143.936 38.1976 143.399 37.6956 142.743 37.3016C142.082 36.9077 141.279 36.7146 140.337 36.7146C138.529 36.7146 137.189 37.2089 136.32 38.1976C135.455 39.1863 135.019 40.5033 135.019 42.1447V50.2705H135.023ZM126.881 19.3044H135.023V32.3505C135.776 31.5665 136.803 30.9524 138.104 30.5005C139.406 30.0525 140.696 29.8285 141.974 29.8285C143.859 29.8285 145.539 30.1838 147.007 30.8906C148.478 31.6012 149.71 32.5629 150.71 33.7756C151.707 34.9883 152.471 36.3863 153 37.9736C153.53 39.5571 153.792 41.2487 153.792 43.0407C153.792 45.1687 153.445 47.1267 152.746 48.9226C152.047 50.7107 151.039 52.244 149.722 53.5146C148.401 54.7814 146.779 55.7739 144.855 56.4807C142.936 57.1913 140.746 57.5427 138.298 57.5427C136.034 57.5427 133.899 57.338 131.879 56.9287C129.863 56.5193 128.198 56.0868 126.877 55.6388V19.3044H126.881Z" fill="white"/>
<path fill-rule="evenodd" clip-rule="evenodd" d="M177.768 30.9022H185.909V46.0222C185.909 47.5129 186.276 48.6909 187.01 49.5482C187.744 50.4095 188.829 50.8382 190.262 50.8382C191.092 50.8382 191.826 50.6798 192.467 50.3593C193.108 50.0426 193.653 49.6216 194.104 49.1003C194.56 48.5789 194.9 47.9609 195.124 47.2503C195.348 46.5436 195.464 45.8175 195.464 45.0683V30.8983H203.551V57.1643H195.746L195.522 54.3604C194.657 55.3684 193.514 56.2026 192.1 56.8514C190.686 57.508 189.207 57.8324 187.662 57.8324C184.611 57.8324 182.194 56.9364 180.425 55.1444C178.652 53.3524 177.768 50.6992 177.768 47.1924V30.9022Z" fill="white"/>
<path fill-rule="evenodd" clip-rule="evenodd" d="M211.183 51.7303L224.19 37.3943H211.75V30.8983H234.479V36.4442L221.417 50.8343H234.537V57.1643H211.183V51.7303Z" fill="white"/>
<path fill-rule="evenodd" clip-rule="evenodd" d="M165.027 26.7119L160.864 19.6636H169.19L165.027 26.7119Z" fill="white"/>
</svg>
