<svg width="283" height="53" viewBox="0 0 283 53" fill="none" xmlns="http://www.w3.org/2000/svg">
<path fill-rule="evenodd" clip-rule="evenodd" d="M16.9976 21.1163C25.0813 18.9963 26.657 12.4271 24.0814 8.05811C21.5093 3.69259 16.1214 2.28042 11.8357 4.47364C0.787793 10.1363 -1.72776 30.0217 1.57214 34.1362C3.33868 26.915 8.91389 23.2329 16.9976 21.1163ZM36.6733 31.9256C28.5896 34.0421 27.0139 40.6148 29.5895 44.9803C32.1616 49.3458 37.5531 50.758 41.8352 48.5648C52.8831 42.9056 55.3987 23.0167 52.0988 18.9057C50.3322 26.1234 44.7535 29.8056 36.6733 31.9256ZM21.3609 36.2283C23.5055 44.2062 27.2365 49.7085 34.5535 51.4519C30.3844 54.7086 10.2353 52.226 4.49753 41.3226C2.27522 37.0965 3.70258 31.7791 8.12954 29.2372C12.553 26.6953 19.2128 28.2504 21.3609 36.2283ZM32.31 16.8101C30.1654 8.8322 26.4344 3.32996 19.1139 1.58653C23.2829 -1.67018 43.4321 0.812455 49.1698 11.7193C51.3922 15.9453 49.9648 21.2628 45.5414 23.8012C41.1144 26.3431 34.4581 24.788 32.31 16.8101Z" fill="#F48120"/>
<path fill-rule="evenodd" clip-rule="evenodd" d="M69.1354 23.8954H71.8064C74.3219 23.8954 76.0143 23.4316 76.8622 22.5111C77.7102 21.5871 78.1306 19.7286 78.1306 16.9321C78.1306 14.3345 77.6854 12.5631 76.8057 11.6182C75.926 10.6698 74.2689 10.1991 71.8064 10.1991H69.1354V23.8954ZM84.3347 27.8808C82.1866 29.7847 78.0105 30.7296 71.8064 30.7296H69.1354V48.8577H64.4364H59.7056V3.36137H64.4046H73.6683C78.6676 3.36137 82.2325 4.39696 84.37 6.45419C86.4969 8.52189 87.5639 11.9669 87.5639 16.8101C87.5639 20.3179 87.2106 25.3354 84.3347 27.8808ZM98.0077 49.7747C102.251 49.7747 105.413 48.896 107.505 47.1456C109.586 45.3953 110.6 42.7662 110.533 39.2654V38.3309H102.148V39.2654C102.237 41.2459 102.014 42.6546 101.491 43.5019C100.979 44.3527 100.057 44.7781 98.7285 44.7781C97.3364 44.7781 96.4108 44.1818 95.9656 43.0068C95.5204 41.8178 95.2979 39.3839 95.2979 35.7123V34.7464H110.533V30.1333C110.533 24.9519 109.709 21.4302 108.049 19.5578C106.399 17.6853 103.293 16.7508 98.7285 16.7508C94.3969 16.7508 91.3479 17.8317 89.5743 19.9971C87.8042 22.1519 86.9138 25.8619 86.9138 31.1341V37.3964C86.9138 41.7759 87.783 44.935 89.5213 46.8702C91.2701 48.8089 94.1001 49.7747 98.0077 49.7747ZM102.152 29.9137H95.3014V29.4604C95.3014 26.4687 95.5381 24.4324 96.0151 23.3654C96.492 22.2879 97.3965 21.7475 98.732 21.7475C100.057 21.7475 100.958 22.1973 101.438 23.0899C101.915 23.979 102.152 25.6632 102.152 28.1389V29.9137ZM112.776 17.4343H116.783H120.835V21.5278C121.135 20.9455 121.46 20.4155 121.803 19.9413C123.308 18.0584 125.855 17.0019 129.442 16.7822V23.8814C128.894 23.7698 128.297 23.728 127.615 23.7489C125.177 23.7489 123.485 24.3417 122.527 25.5202C121.57 26.7093 121.135 28.7456 121.224 31.6501V49.0913H117.016H112.776V17.4343ZM143.715 23.0446V49.0913H139.507H135.264V23.0446H130.798V17.4343H135.264V12.3051C135.264 9.21228 135.978 6.91445 137.412 5.42906C138.85 3.9332 141.065 3.18353 144.037 3.18353C145.63 3.18353 147.121 3.2707 148.513 3.43459V8.89149L147.298 8.86011C145.994 8.86011 145.068 9.11116 144.524 9.6307C143.98 10.1468 143.708 11.0394 143.708 12.3051V17.4343H148.51V23.0446H143.715ZM244.087 17.4343H248.04H252.015V20.4922L252.05 20.4608C253.697 17.9852 256.149 16.7508 259.378 16.7508C262.162 16.7508 264.246 17.4761 265.635 18.9406C266.172 19.502 266.606 20.1854 266.939 20.9769C267.151 20.5445 267.394 20.1854 267.649 19.875C269.285 17.7934 271.634 16.7474 274.708 16.7474C277.425 16.7474 279.463 17.5284 280.831 19.101C282.191 20.6735 282.869 23.0306 282.869 26.1967V49.0878H278.661H274.418V26.8383C274.418 25.4191 274.164 24.3312 273.637 23.5502C273.114 22.7796 272.369 22.3925 271.411 22.3925C270.185 22.3925 269.26 22.8458 268.649 23.7454C268.027 24.6485 267.712 25.991 267.712 27.7728V49.0878H263.504H259.261V26.9045C259.261 25.4644 259.007 24.3521 258.48 23.5711C257.954 22.79 257.212 22.3925 256.24 22.3925C254.781 22.3925 253.781 22.9435 253.234 24.0348C252.676 25.1332 252.442 27.0265 252.531 29.7149V49.0913H248.323H244.08V17.4343H244.087ZM226.686 39.6175C226.686 41.211 226.919 42.3547 227.4 43.073C227.88 43.7774 228.658 44.1295 229.718 44.1295C231.152 44.1295 232.145 43.5786 232.703 42.4872C233.258 41.3889 233.494 39.4955 233.403 36.8106V17.4343H237.61H241.854V49.0913H237.9H233.925V45.9671C231.689 48.4881 229.096 49.7538 226.163 49.7747C223.513 49.7747 221.521 49.0146 220.203 47.4874C218.892 45.9601 218.235 43.6693 218.235 40.6183V17.4343H222.443H226.686V39.6175ZM215.995 49.3912C214.345 49.6422 212.455 49.7747 210.349 49.7747C207.678 49.7747 205.661 48.9902 204.315 47.4211C202.965 45.859 202.287 43.5124 202.287 40.3881V23.0446H198.065H198.061H197.786C197.786 21.1722 197.786 19.3067 197.786 17.4343H202.283V12.3714L210.734 8.92636V17.4343H215.992V23.0446H210.734V40.3881C210.734 41.9154 210.9 42.9196 211.225 43.3903C211.55 43.8645 212.261 44.0947 213.352 44.0947C214.31 44.0737 215.19 44.0075 215.992 43.9098V49.3912H215.995ZM196.503 23.0446C196.867 24.3243 197.051 25.8201 197.051 27.5252V28.8467H188.667V27.9122C188.755 26.0398 188.589 24.6451 188.165 23.7176C187.741 22.7935 187.048 22.3333 186.095 22.3333C185.049 22.3333 184.324 22.7517 183.922 23.5885C183.522 24.4254 183.321 25.9526 183.321 28.1668V37.0687C183.321 39.9732 183.498 41.891 183.844 42.8115C184.19 43.7355 184.9 44.1993 185.992 44.1993C187.038 44.1993 187.762 43.8018 188.176 43.0207C188.589 42.2397 188.755 40.9321 188.667 39.105V37.2326H197.051V39.105C197.118 42.6685 196.227 45.3464 194.38 47.1143C192.532 48.8856 189.734 49.7782 185.996 49.7782C182.085 49.7782 179.258 48.8333 177.53 46.9399C175.806 45.0466 174.937 41.9781 174.937 37.7172V28.8153C174.937 24.5579 175.806 21.486 177.53 19.5926C179.258 17.7027 182.085 16.7543 185.996 16.7543C189.893 16.7543 192.709 17.6435 194.482 19.4287C195.514 20.4538 196.058 21.6952 196.503 23.0446ZM164.31 29.9137V28.1424C164.31 25.6667 164.076 23.9791 163.596 23.0934C163.119 22.2008 162.214 21.751 160.89 21.751C159.554 21.751 158.65 22.2914 158.173 23.3689C157.692 24.4358 157.459 26.4722 157.459 29.4639V29.9171H164.31V29.9137ZM160.169 49.7747C156.258 49.7747 153.431 48.8089 151.682 46.8702C149.948 44.935 149.078 41.7759 149.078 37.3964V31.1341C149.078 25.8619 149.969 22.1519 151.739 19.9971C153.509 17.8317 156.562 16.7508 160.893 16.7508C165.458 16.7508 168.563 17.6888 170.213 19.5578C171.874 21.4267 172.697 24.9484 172.697 30.1333V34.7464H157.462V35.7123C157.462 39.3874 157.685 41.8178 158.13 43.0068C158.575 44.1818 159.501 44.7781 160.893 44.7781C162.218 44.7781 163.144 44.3492 163.656 43.5019C164.179 42.6546 164.401 41.2494 164.313 39.2654V38.3309H172.701V39.2654C172.768 42.7662 171.754 45.3953 169.669 47.1456C167.574 48.896 164.412 49.7747 160.169 49.7747Z" fill="white"/>
</svg>
