<svg width="333" height="72" viewBox="0 0 333 72" fill="none" xmlns="http://www.w3.org/2000/svg">
<path d="M0 0H333V72H0V0Z" fill="#1A238C"/>
<path d="M66 26.7V21.3C66 21.1343 66.1343 21 66.3 21H109.95C110.116 21 110.25 21.1343 110.25 21.3V26.7C110.25 26.8657 110.116 27 109.95 27H96.1962C96.077 27 95.9691 27.0706 95.9214 27.1798L85.5786 50.8202C85.5309 50.9294 85.423 51 85.3038 51H66.4587C66.2424 51 66.0971 50.778 66.1839 50.5798L76.3161 27.4202C76.4029 27.222 76.2576 27 76.0413 27H66.3C66.1343 27 66 26.8657 66 26.7Z" fill="white"/>
<path d="M130.42 21.0589L90.7304 50.4589C90.498 50.6311 90.6198 51 90.909 51H124.2C124.366 51 124.5 50.8657 124.5 50.7V45.3C124.5 45.1343 124.366 45 124.2 45H105.975C105.679 45 105.562 44.618 105.806 44.4519L123.487 32.4286C123.63 32.3316 123.825 32.3745 123.913 32.5223L134.913 50.8544C134.967 50.9447 135.064 51 135.17 51H156.22C156.453 51 156.597 50.7456 156.477 50.5457L138.837 21.1457C138.783 21.0553 138.686 21 138.58 21H130.599C130.535 21 130.472 21.0207 130.42 21.0589Z" fill="white"/>
<path fill-rule="evenodd" clip-rule="evenodd" d="M159.02 50.198L170.176 21.1923C170.221 21.0764 170.332 21 170.456 21H207C219.563 21 216.107 37.0192 205.24 37.4894C205.018 37.4991 204.867 37.7347 204.967 37.9342L211.283 50.5658C211.383 50.7653 211.238 51 211.015 51H192.172C192.066 51 191.967 50.9433 191.913 50.8512L181.834 33.5727C181.704 33.3498 181.372 33.3842 181.29 33.629L175.568 50.7949C175.528 50.9174 175.413 51 175.284 51H159.3C159.134 51 159 50.8657 159 50.7V50.3057C159 50.2689 159.007 50.2324 159.02 50.198ZM185.928 24.1975L183.146 31.8475C183.075 32.0431 183.22 32.25 183.428 32.25H197.25C202.49 32.25 203.247 24.7779 198.775 24.0043C198.759 24.0014 198.742 24 198.725 24H186.21C186.084 24 185.971 24.0789 185.928 24.1975Z" fill="white"/>
<path d="M220.425 50.9531C204.841 41.2217 221.937 25.5639 230.939 21.0307C230.981 21.0098 231.024 21 231.071 21H265.2C265.366 21 265.5 21.1343 265.5 21.3V26.7C265.5 26.8657 265.366 27 265.2 27H243.1C243.035 27 242.972 27.0211 242.92 27.06L237.72 30.96C237.49 31.133 237.612 31.5 237.9 31.5H254.616C254.811 31.5 254.954 31.6834 254.907 31.8728L253.557 37.2728C253.524 37.4063 253.404 37.5 253.266 37.5H236.275C236.258 37.5 236.241 37.5014 236.225 37.5042C231.782 38.2641 231.756 43.4286 234.687 44.9675C234.728 44.9891 234.774 45 234.821 45H254.7C254.866 45 255 45.1343 255 45.3V50.7C255 50.8657 254.866 51 254.7 51H220.586C220.53 51 220.472 50.9827 220.425 50.9531Z" fill="#BCD73C"/>
<path d="M278.117 35.7586L270.245 21.4446C270.135 21.2446 270.279 21 270.508 21H290.846C290.943 21 291.034 21.0468 291.09 21.1256L298.319 31.2457C298.418 31.3844 298.612 31.4128 298.747 31.3081L311.919 21.0632C311.972 21.0222 312.036 21 312.103 21H320.907C321.189 21 321.315 21.3543 321.097 21.5326L301.703 37.3345C301.587 37.4293 301.559 37.5955 301.637 37.7235L309.471 50.5436C309.593 50.7435 309.45 51 309.215 51H288.164C288.062 51 287.967 50.9481 287.912 50.8622L281.423 40.769C281.329 40.6233 281.132 40.5869 280.993 40.6897L267.102 50.9247C267.037 50.9729 266.955 50.9925 266.875 50.9791L258.748 49.6247C258.48 49.58 258.405 49.23 258.631 49.0792L278.021 36.1528C278.151 36.0664 278.193 35.8951 278.117 35.7586Z" fill="#BCD73C"/>
<path d="M60 27H42C40.4999 27.75 52.5 38.25 53.25 41.25C53.6138 42.7052 54 50.25 41.9999 51H12V45H30C33.75 45 29.25 42 27.75 40.5L21.75 34.5C15 27.75 24 21 28.5 21H60V27Z" fill="white"/>
</svg>
