<svg width="180" height="59" viewBox="0 0 180 59" fill="none" xmlns="http://www.w3.org/2000/svg">
<path fill-rule="evenodd" clip-rule="evenodd" d="M109.717 32.188C109.717 31.3528 110.378 23.364 119.184 23.364C125.024 23.364 127.134 26.6677 128.242 32.188H109.717ZM119.504 14.7795C106.388 14.7795 98.3203 24.7308 98.3203 36.6613C98.3203 46.9678 104.229 58.3975 119.504 58.3975C133.361 58.3975 137.298 49.5063 138.902 44.5323H131.671C130.014 44.5323 128.799 45.1926 127.67 46.5864C127.195 47.1272 124.771 49.893 119.906 49.893C110.047 49.893 109.904 42.0736 109.717 39.3988H139.627C140.472 27.3919 134.117 14.7793 119.502 14.7793" fill="#8E4DBC"/>
<path fill-rule="evenodd" clip-rule="evenodd" d="M146.697 0.29211V46.9432C146.789 54.8032 148.235 57.5354 158.019 57.5354L158.011 9.49368C157.935 1.75304 156.442 0.29211 146.697 0.29211Z" fill="#8E4DBC"/>
<path fill-rule="evenodd" clip-rule="evenodd" d="M168.663 0.29211V46.9432C168.749 54.8032 170.196 57.5354 179.983 57.5354L179.977 9.49368C179.9 1.75304 178.397 0.29211 168.663 0.29211" fill="#8E4DBC"/>
<path fill-rule="evenodd" clip-rule="evenodd" d="M85.8818 41.4876C85.8818 41.4876 83.2894 41.3926 82.2899 44.1218C80.877 48.0093 78.2897 49.8939 73.8799 49.8939C67.031 49.8939 64.4201 43.3697 64.4201 36.6674C64.4201 30.2998 67.1031 23.3641 74.1287 23.3641C78.5096 23.3641 80.8339 25.3264 81.826 27.862C82.3681 29.2528 83.1732 30.5023 85.6884 30.5023H93.6895C93.0842 19.7931 83.8819 14.7796 74.1958 14.7796C59.9223 14.7796 53.0391 25.1236 53.0391 37.1589C53.0391 50.6341 62.3828 58.3989 73.9568 58.3989C84.0632 58.3989 92.3407 53.3269 93.9285 41.4882H85.8818V41.4876Z" fill="#8E4DBC"/>
<path fill-rule="evenodd" clip-rule="evenodd" d="M46.0988 36.7073C46.0988 51.2936 37.4787 58.4011 23.0459 58.4011C8.52981 58.4011 0.0690918 51.3768 0.0690918 36.7073V0.294113C10.2252 0.294113 11.8456 2.98006 11.9486 10.6838L11.9356 36.7069C11.9356 42.6016 13.4463 48.4195 23.0463 48.4195C31.5112 48.4195 34.2334 44.7168 34.2334 36.7069V0.293713C44.3867 0.293713 46.0058 2.97967 46.1123 10.6834L46.0993 36.7064L46.0988 36.7073Z" fill="#8E4DBC"/>
</svg>
