<svg width="192" height="75" viewBox="0 0 192 75" fill="none" xmlns="http://www.w3.org/2000/svg">
<path d="M191.74 46.8602L191.505 46.8681C188.749 46.9613 186.84 47.2672 185.284 47.7109C183.727 48.1548 182.515 48.7386 181.147 49.401L181.146 49.4013L181.056 49.4446C180.041 49.9329 178.979 50.4435 177.619 50.9666L177.54 50.7616L177.619 50.9666C175.104 51.9325 170.754 52.5272 166.571 52.8432C162.382 53.1595 158.321 53.1988 156.369 53.0403L156.369 53.0403C155.385 52.9592 154.644 53.0794 153.988 53.3172C153.325 53.5571 152.741 53.9185 152.062 54.3386L152.062 54.3387L152.061 54.3391L151.946 54.1523C150.722 54.9147 149.204 55.8577 146.362 56.6134L146.418 56.8257C145.12 57.1706 143.979 57.0589 142.975 56.6289C141.975 56.2007 141.125 55.4626 140.394 54.5745C138.945 52.8147 137.927 50.4205 137.127 48.5369L137.111 48.5001L137.11 48.4987C136.876 47.9372 136.657 47.4185 136.451 46.9674C135.887 45.7444 135.304 45.2754 134.723 45.1286C134.118 44.9758 133.457 45.1509 132.67 45.3689L132.669 45.3693L132.632 45.3793C131.698 45.6311 130.597 45.9278 129.226 45.7085L129.226 45.7085C128.281 45.5556 127.64 45.2394 127.137 44.8012C126.648 44.3749 126.3 43.8406 125.934 43.2784L125.921 43.2578L191.74 46.8602ZM191.74 46.8602L191.716 46.6258M191.74 46.8602L191.716 46.6258M191.716 46.6258C191.195 41.6296 189.22 40.3677 188.864 40.181L188.825 40.1607L188.782 40.1568C188.475 40.1289 186.612 39.9887 178.801 40.089L178.746 40.0897L178.697 40.1168C170.22 44.8478 164.661 44.4701 161.516 43.3519L161.516 43.3519C158.873 42.4142 156.832 40.5298 155.909 38.1948L155.908 38.1943C154.956 35.8017 152.992 34.2181 151.28 33.234C150.421 32.7408 149.62 32.3948 149.03 32.1707C148.734 32.0585 148.491 31.9768 148.32 31.9223C148.234 31.895 148.166 31.8746 148.118 31.8606C148.063 31.8442 148.049 31.8406 148.05 31.8409L148.042 31.8385L148.035 31.8366L147.961 31.8175L147.949 31.7579C147.949 31.7554 147.948 31.7423 147.946 31.7121C147.945 31.6789 147.943 31.6339 147.942 31.5776C147.939 31.4651 147.937 31.3116 147.935 31.1256C147.932 30.7537 147.931 30.2548 147.931 29.6995C147.932 28.5891 147.939 27.2554 147.946 26.2659C147.959 24.3821 147.146 22.4702 146.106 20.8003V20.7907L146.073 20.7372C144.426 18.1118 142.207 16.0527 141.686 15.6565L141.627 15.6118H141.553H141.553H141.553H141.553H141.553H141.553H141.552H141.552H141.552H141.552H141.552H141.552H141.552H141.552H141.551H141.551H141.551H141.551H141.551H141.551H141.551H141.551H141.55H141.55H141.55H141.55H141.55H141.55H141.55H141.549H141.549H141.549H141.549H141.549H141.549H141.549H141.549H141.548H141.548H141.548H141.548H141.548H141.548H141.548H141.548H141.547H141.547H141.547H141.547H141.547H141.547H141.547H141.546H141.459L141.396 15.6717C141.191 15.8652 140.882 16.0253 140.451 16.1331C139.466 16.3694 138.641 16.9772 137.962 17.736C137.282 18.4952 136.738 19.4161 136.315 20.3002C135.892 21.1854 135.587 22.041 135.387 22.6747C135.288 22.9918 135.214 23.2541 135.165 23.4374C135.153 23.4852 135.142 23.5276 135.133 23.5643C135.11 23.5651 135.084 23.5661 135.057 23.567C134.903 23.5724 134.678 23.5786 134.4 23.5819C133.843 23.5886 133.072 23.5836 132.214 23.5371C130.487 23.4436 128.444 23.1836 127.075 22.5347C125.776 21.9192 125.417 20.6536 125.399 19.4796C125.391 18.8961 125.467 18.3504 125.546 17.9493C125.586 17.7492 125.626 17.5862 125.656 17.4738C125.665 17.4417 125.672 17.4138 125.679 17.3903C125.684 17.3727 125.688 17.3576 125.692 17.3452L125.702 17.3127L125.704 17.3049L125.705 17.3033L125.705 17.3031L191.716 46.6258ZM122.723 40.1206L122.723 40.1206C119.08 38.1505 116.021 40.1344 113.7 41.6617L122.723 40.1206ZM122.723 40.1206C124.491 41.0764 125.242 42.2207 125.92 43.2574L122.723 40.1206ZM113.399 41.8624L113.699 41.6625L98.0976 14.2206L98.0975 14.2207L98.0968 14.2221L98.0936 14.2289L98.0798 14.2572C98.0742 14.2685 98.0674 14.2822 98.0593 14.2981C98.0493 14.3177 98.0374 14.3406 98.0237 14.3665C97.974 14.4606 97.9001 14.5936 97.8046 14.7474C97.6127 15.0565 97.3378 15.4424 97.0003 15.7656C96.661 16.0905 96.276 16.3354 95.864 16.3954C95.4636 16.4537 95.0009 16.3428 94.4837 15.8815L94.4832 15.8811C93.9381 15.398 93.5315 14.9203 93.1612 14.4714C93.1241 14.4265 93.0873 14.3816 93.0506 14.337C92.7248 13.9407 92.4134 13.5618 92.0546 13.2409C91.232 12.5052 90.1786 12.0886 88.1311 12.2148C86.6186 12.3081 85.055 12.7496 83.6825 13.1371C83.2102 13.2705 82.7605 13.3975 82.3433 13.5017C81.5127 13.7091 80.8249 13.8236 80.3135 13.755C80.0627 13.7213 79.8675 13.645 79.7201 13.5251C79.5743 13.4065 79.4588 13.232 79.3884 12.9721C79.0658 11.7759 78.4537 9.81739 77.5532 8.14423C77.1031 7.30787 76.5752 6.53201 75.9668 5.958C75.3577 5.38333 74.6541 4.99852 73.8585 4.97831L73.8529 5.19787L73.8585 4.97831C73.5306 4.97 73.2039 4.96639 72.8766 4.96276C70.2946 4.93419 67.6799 4.90526 64.2389 2.56845C62.2166 1.19504 60.5089 1.07887 58.9974 1.20204C58.6227 1.23258 58.2599 1.2778 57.9111 1.32135L57.9063 1.32194C57.5576 1.36548 57.2237 1.40717 56.8972 1.43271C56.2422 1.48396 55.6339 1.46847 55.0412 1.27726C53.7573 0.858412 51.5093 0.46523 49.27 0.30654C48.1484 0.227059 47.0231 0.205947 46.0163 0.271024C45.0133 0.335852 44.1117 0.487098 43.4468 0.761485C42.8555 1.00453 41.869 1.13383 40.6929 1.18238C39.5253 1.23057 38.1997 1.19851 36.9486 1.13389C35.6982 1.06931 34.5259 0.972406 33.6659 0.89161C33.236 0.851221 32.8844 0.814879 32.6404 0.78865C32.5184 0.775536 32.4233 0.764952 32.3588 0.757655L32.2854 0.749273L32.2668 0.747109L32.2622 0.746565L32.2611 0.746432L32.2608 0.7464L32.2349 0.964506L32.2607 0.746392L32.1578 0.734236L32.083 0.805918L26.8768 5.79415H20.7922H20.7622L20.7332 5.80221L20.7922 6.01378C20.7332 5.80221 20.7331 5.80224 20.733 5.80228L20.7326 5.80238L20.7316 5.80268L20.728 5.8037L20.7151 5.80743C20.704 5.81068 20.688 5.81545 20.6674 5.82181C20.6261 5.83452 20.5663 5.85357 20.4905 5.87943C20.339 5.93112 20.1233 6.01009 19.8637 6.12C19.345 6.3396 18.648 6.68394 17.9358 7.18319C16.5438 8.15912 15.0767 9.74072 14.7988 12.1496C14.5271 12.1802 14.2631 12.0854 13.9738 11.8896C13.6685 11.6828 13.364 11.3839 13.0212 11.0473C12.9738 11.0009 12.9258 10.9537 12.8769 10.9059C12.0921 10.1394 11.1214 9.25223 9.71774 9.29192L9.71751 9.29193C9.17246 9.30791 8.53713 9.46031 7.85329 9.68748C7.16714 9.91542 6.4182 10.2235 5.64311 10.5598C5.27067 10.7213 4.89242 10.8893 4.51155 11.0584C3.29945 11.5965 2.06086 12.1464 0.899128 12.5404L0.779598 12.5809L0.754442 12.7046C0.710775 12.9193 0.562827 13.8107 0.855946 14.8598C1.15168 15.9182 1.89323 17.1231 3.60235 17.9484C5.48973 18.8658 6.90853 20.0692 7.98031 21.7304C9.05465 23.3956 9.78805 25.5328 10.2835 28.329C10.5257 29.7017 11.4837 31.1059 12.7457 32.4282C14.0128 33.7558 15.6114 35.0264 17.178 36.1302C20.2931 38.3252 23.3075 39.8785 23.4077 39.9292C23.4083 39.9295 23.4088 39.9297 23.4092 39.9299L23.4753 39.9641L22.7666 54.7656C22.7564 54.8795 22.642 56.2805 22.8482 57.8828C22.9542 58.7067 23.146 59.5924 23.4854 60.3868C23.8247 61.1809 24.3174 61.8973 25.033 62.3618C26.5635 63.3579 28.7757 62.976 31.5139 61.4258L31.514 61.4259L31.5219 61.421C32.4714 60.8288 33.2794 60.4592 33.9559 60.2989C34.6304 60.139 35.157 60.1907 35.5662 60.417C36.3255 60.8406 36.7369 61.8627 36.7369 63.8295C36.7369 65.087 37.1072 66.0903 37.8854 66.8612L37.8855 66.8614C39.1837 68.1455 41.6259 68.7305 45.0903 68.6904C49.1115 68.6641 50.5842 70.1653 51.0931 71.0111C51.6131 71.8818 51.6948 72.9411 51.3312 73.8751L51.2252 74.1474L51.5162 74.1735C52.496 74.2614 54.9298 74.3344 56.945 73.1336L56.945 73.1337L56.9502 73.1304C57.222 72.958 57.5076 72.7853 57.7955 72.6112L57.797 72.6103L57.802 72.6072C58.7601 72.0176 59.7161 71.4293 60.62 71.0327C61.5296 70.6336 62.3462 70.4474 63.033 70.6168L63.0347 70.6172C63.4094 70.7064 63.7365 70.908 63.9944 71.2139L64.0872 71.324L64.2252 71.2828C65.5115 70.8989 72.4073 68.6349 76.6588 62.7951L76.6589 62.7949C79.0848 59.4568 82.0128 57.6607 84.6992 56.9119L84.9311 56.8473L84.8456 56.6223C84.5243 55.7777 83.7892 53.5956 83.7489 51.3078C83.7086 49.0212 84.3598 46.6838 86.749 45.4251L86.7491 45.4251C89.2882 44.0856 91.2704 43.3928 92.9169 43.3076C94.5484 43.2231 95.8648 43.7343 97.0855 44.8449L97.0864 44.8457C97.4523 45.175 97.8384 45.3365 98.2573 45.2957C98.8132 45.2444 99.3369 44.8573 99.7881 44.4095C100.239 43.9617 100.657 43.4126 101.003 42.958L101.02 42.9362L101.02 42.9355C101.279 42.5926 101.473 42.3405 101.639 42.1599C101.805 41.978 101.924 41.8901 102.026 41.8516L102.027 41.8513C102.073 41.8335 102.153 41.8175 102.286 41.8117C102.418 41.8059 102.587 41.8104 102.806 41.8252C103.244 41.8548 103.857 41.9243 104.711 42.0248L104.712 42.0249L104.788 42.0335C106.102 42.1829 107.847 42.3813 109.449 42.4292C110.266 42.4536 111.052 42.4391 111.729 42.3577C112.4 42.277 112.991 42.1276 113.397 41.8638L113.399 41.8624ZM98.1567 14.0937L98.0976 14.2205L125.796 17.0209L125.499 17.0162L116.083 16.8691L115.982 16.8675L115.915 16.943L115.915 16.943L115.915 16.9435L115.913 16.9457L115.904 16.9553C115.9 16.9594 115.896 16.9647 115.89 16.9709C115.884 16.9774 115.877 16.9851 115.869 16.9938C115.837 17.0278 115.791 17.0778 115.73 17.141C115.607 17.2675 115.429 17.4468 115.203 17.6562C114.751 18.0755 114.115 18.6131 113.374 19.0901C111.876 20.0545 110.033 20.722 108.415 19.8195L108.415 19.8194C107.589 19.3595 107.078 18.756 106.674 18.106C106.471 17.7788 106.296 17.4416 106.12 17.1013L106.109 17.0808C105.938 16.7497 105.766 16.4149 105.569 16.0984C105.165 15.4472 104.652 14.8596 103.811 14.4805C102.977 14.1046 101.845 13.9445 100.219 14.0937H100.218H100.207H100.196H100.185H100.173H100.162H100.151H100.14H100.129H100.118H100.108H100.097H100.086H100.075H100.065H100.054H100.043H100.033H100.022H100.012H100.001H99.9909H99.9805H99.9702H99.9599H99.9497H99.9395H99.9294H99.9193H99.9092H99.8992H99.8892H99.8793H99.8694H99.8596H99.8497H99.84H99.8303H99.8206H99.8109H99.8013H99.7918H99.7822H99.7728H99.7633H99.7539H99.7445H99.7352H99.7259H99.7167H99.7075H99.6983H99.6892H99.6801H99.6711H99.6621H99.6531H99.6442H99.6353H99.6265H99.6177H99.6089H99.6002H99.5915H99.5828H99.5742H99.5656H99.5571H99.5486H99.5402H99.5317H99.5234H99.515H99.5067H99.4984H99.4902H99.482H99.4738H99.4657H99.4576H99.4496H99.4416H99.4336H99.4257H99.4178H99.4099H99.4021H99.3943H99.3866H99.3789H99.3712H99.3636H99.356H99.3484H99.3409H99.3334H99.3259H99.3185H99.3111H99.3038H99.2964H99.2892H99.2819H99.2747H99.2675H99.2604H99.2533H99.2462H99.2392H99.2322H99.2252H99.2183H99.2114H99.2045H99.1977H99.1909H99.1842H99.1774H99.1708H99.1641H99.1575H99.1509H99.1443H99.1378H99.1313H99.1249H99.1185H99.1121H99.1057H99.0994H99.0931H99.0869H99.0806H99.0744H99.0683H99.0622H99.0561H99.05H99.044H99.038H99.032H99.0261H99.0202H99.0143H99.0085H99.0027H98.9969H98.9912H98.9855H98.9798H98.9742H98.9685H98.963H98.9574H98.9519H98.9464H98.9409H98.9355H98.9301H98.9247H98.9194H98.9141H98.9088H98.9036H98.8984H98.8932H98.888H98.8829H98.8778H98.8727H98.8677H98.8627H98.8577H98.8527H98.8478H98.8429H98.8381H98.8332H98.8284H98.8236H98.8189H98.8142H98.8095H98.8048H98.8002H98.7956H98.791H98.7865H98.7819H98.7775H98.773H98.7685H98.7641H98.7598H98.7554H98.7511H98.7468H98.7425H98.7383H98.734H98.7298H98.7257H98.7215H98.7174H98.7133H98.7093H98.7053H98.7012H98.6973H98.6933H98.6894H98.6855H98.6816H98.6778H98.6739H98.6701H98.6664H98.6626H98.6589H98.6552H98.6515H98.6479H98.6443H98.6407H98.6371H98.6336H98.63H98.6265H98.6231H98.6196H98.6162H98.6128H98.6094H98.6061H98.6027H98.5994H98.5962H98.5929H98.5897H98.5865H98.5833H98.5801H98.577H98.5739H98.5708H98.5677H98.5647H98.5616H98.5586H98.5557H98.5527H98.5498H98.5469H98.544H98.5411H98.5383H98.5355H98.5327H98.5299H98.5271H98.5244H98.5217H98.519H98.5163H98.5137H98.5111H98.5085H98.5059H98.5033H98.5008H98.4982H98.4958H98.4933H98.4908H98.4884H98.486H98.4836H98.4812H98.4788H98.4765H98.4742H98.4719H98.4696H98.4674H98.4651H98.4629H98.4607H98.4585H98.4564H98.4542H98.4521H98.45H98.4479H98.4459H98.4438H98.4418H98.4398H98.4378H98.4358H98.4339H98.432H98.43H98.4281H98.4263H98.4244H98.4226H98.4207H98.4189H98.4171H98.4154H98.4136H98.4119H98.4102H98.4085H98.4068H98.4051H98.4035H98.4018H98.4002H98.3986H98.397H98.3954H98.3939H98.3924H98.3908H98.3893H98.3879H98.3864H98.3849H98.3835H98.3821H98.3807H98.3793H98.3779H98.3765H98.3752H98.3739H98.3725H98.3712H98.37H98.3687H98.3674H98.3662H98.365H98.3637H98.3625H98.3614H98.3602H98.359H98.3579H98.3568H98.3557H98.3546H98.3535H98.3524H98.3513H98.3503H98.3493H98.3483H98.3473H98.3463H98.3453H98.3443H98.3434H98.3424H98.3415H98.3406H98.3397H98.3388H98.3379H98.337H98.3362H98.3354H98.3345H98.3337H98.3329H98.3321H98.3313H98.3306H98.3298H98.329H98.3283H98.3276H98.3269H98.3262H98.3255H98.3248H98.3241H98.3235H98.3228H98.3222H98.3216H98.3209H98.3203H98.3197H98.3192H98.3186H98.318H98.3175H98.3169H98.3164H98.3158H98.3153H98.3148H98.3143H98.3138H98.3133H98.3129H98.3124H98.312H98.3115H98.3111H98.3107H98.3102H98.3098H98.3094H98.309H98.3086H98.3083H98.3079H98.3075H98.3072H98.3068H98.3065H98.3062H98.3058H98.3055H98.3052H98.3049H98.3046H98.3043H98.304H98.3038H98.3035H98.3033H98.303H98.3027H98.3025H98.3023H98.3021H98.3018H98.3016H98.3014H98.3012H98.301H98.3008H98.3006H98.3005H98.3003H98.3001H98.2999H98.2998H98.2996H98.2995H98.2993H98.2992H98.2991H98.2989H98.2988H98.2987H98.2986H98.2985H98.2984H98.2983H98.2982H98.2981H98.298H98.2979H98.2978H98.2977H98.2977H98.2976H98.2975H98.2975H98.2974H98.2973H98.2972H98.2971H98.2971H98.297H98.2969H98.2969H98.2968H98.2967H98.1567Z" fill="#383565" stroke="#58567C" stroke-width="0.439261"/>
</svg>
