<svg width="70" height="94" viewBox="0 0 70 94" fill="none" xmlns="http://www.w3.org/2000/svg">
<path d="M69.4157 93.1613L69.1339 93.0884C66.1306 92.3116 62.8321 91.3543 59.9169 90.4949C59.3295 90.3217 58.7578 90.1526 58.2074 89.9897C56.0233 89.3435 54.173 88.796 52.9959 88.4871C48.7883 87.3889 45.1822 89.2158 43.1109 90.2652C42.9824 90.3303 42.8598 90.3924 42.7434 90.4506C42.2016 90.7231 41.3729 90.8415 40.3815 90.8578C39.3813 90.8742 38.1842 90.7867 36.8842 90.6251C34.2835 90.3018 31.2512 89.6793 28.5198 88.9822C25.7674 88.2823 23.8818 87.2031 22.5694 86.1556C21.4292 85.2455 20.7247 84.3606 20.2714 83.7912C20.2037 83.7061 20.1415 83.6281 20.0844 83.5581C20.0542 83.5211 20.0206 83.4796 19.9835 83.4337C18.9249 82.1263 15.0428 77.3311 8.52053 76.0037L8.52029 76.0037C5.89209 75.4658 3.86284 74.2255 2.21244 72.6362L2.14515 72.5715V72.478V72.1544L2.14499 72.1505L2.14431 72.1344L2.14185 72.079L2.13279 71.88L2.09949 71.155C2.07106 70.5355 2.0308 69.6556 1.98267 68.5874C1.88642 66.451 1.75872 63.5614 1.63122 60.4952C1.37632 54.3652 1.12192 47.5216 1.12192 44.5834C1.12192 40.4759 2.32474 35.6187 3.19901 32.0883L3.20153 32.0781L3.20157 32.078L3.22537 31.9816C3.61011 30.4232 3.91025 29.2075 4.01969 28.3964L4.01982 28.3954C4.16982 27.3204 3.82164 26.4235 3.42836 25.4104L3.41791 25.3835C3.41782 25.3833 3.41773 25.3831 3.41764 25.3828C3.12434 24.6429 2.81628 23.8632 2.70032 22.9528C2.58366 22.0369 2.66201 20.9987 3.12131 19.7304L3.12136 19.7303C3.729 18.0559 4.54621 17.0005 5.61213 16.7172L5.6127 16.7171C6.26379 16.5459 6.92598 16.6873 7.52185 16.9529C8.11849 17.2189 8.66824 17.6178 9.10811 17.9929M69.4157 93.1613L8.9656 18.16M69.4157 93.1613L69.4085 92.8702M69.4157 93.1613L69.4085 92.8702M9.10811 17.9929L8.9656 18.16M9.10811 17.9929C9.10805 17.9929 9.108 17.9928 9.10795 17.9928L8.9656 18.16M9.10811 17.9929C9.71569 18.5099 10.1793 18.6699 10.6006 18.5989M8.9656 18.16C9.59425 18.695 10.1226 18.9024 10.6375 18.8154M10.6006 18.5989C10.6003 18.599 10.6001 18.599 10.5998 18.5991L10.6375 18.8154M10.6006 18.5989C10.6007 18.5989 10.6008 18.5989 10.601 18.5989L10.6375 18.8154M10.6006 18.5989L10.6375 18.8154M67.002 29.2417L66.9862 29.4607C66.985 29.4606 66.9837 29.4606 66.9824 29.4605L67.002 29.2417ZM67.002 29.2417L66.7833 29.2221L66.7828 29.227C66.8646 29.2321 66.9378 29.2371 67.002 29.2417ZM69.4085 92.8702L69.408 92.8502C69.3789 91.6868 69.1494 82.5084 69.3815 77.7185C69.6556 72.0507 69.7641 64.9695 69.3801 61.9377C69.1791 60.3297 68.149 58.4335 67.0523 56.9521C66.5014 56.208 65.926 55.5581 65.4159 55.0917C65.1612 54.8587 64.9184 54.6675 64.6996 54.5332C64.488 54.4034 64.2703 54.3085 64.0728 54.3085H64.0727H64.0727H64.0727H64.0726H64.0726H64.0725H64.0725H64.0725H64.0724H64.0724H64.0723H64.0723H64.0723H64.0722H64.0722H64.0722H64.0721H64.0721H64.0721H64.072H64.072H64.0719H64.0719H64.0719H64.0718H64.0718H64.0718H64.0717H64.0717H64.0717H64.0716H64.0716H64.0716H64.0715H64.0715H64.0715H64.0714H64.0714H64.0714H64.0713H64.0713H64.0713H64.0712H64.0712H64.0712H64.0711H64.0711H64.0711H64.071H64.071H64.071H64.0709H64.0709H64.0709H64.0708H64.0708H64.0708H64.0707H64.0707H64.0707H64.0706H64.0706H64.0706H64.0705H64.0705H64.0705H64.0705H64.0704H64.0704H64.0704H64.0703H64.0703H64.0702H64.0702H64.0702H64.0701H64.0701H64.07H64.07H64.0699H64.0699H64.0698H64.0698H64.0697H64.0697H64.0696H64.0695H64.0695H64.0694H64.0694H64.0693H64.0693H64.0692H64.0692H64.0691H64.0691H64.069H64.069H64.0689H64.0689H64.0688H64.0688H64.0687H64.0687H64.0686H64.0686H64.0685H64.0685H64.0684H64.0684H64.0683H64.0683H64.0683H64.0682H64.0682H64.0681H64.0681H64.068H64.068H64.0679H64.0679H64.0679H64.0678H64.0678H64.0677H64.0677H64.0676H64.0676H64.0676H64.0675H64.0675H64.0674H64.0674H64.0673H64.0673H64.0673H64.0672H64.0672H64.0671H64.0671H64.0671H64.067H64.067H64.0669H64.0669H64.0669H64.0668H64.0668H64.0667H64.0667H64.0667H64.0666H64.0666H64.0665H64.0665H64.0665H64.0664H64.0664H64.0663H64.0663H64.0663H64.0662H64.0662H64.0661H64.0661H64.0661H64.066H64.066H64.0659H64.0659H64.0659H64.0658H64.0658H64.0658H64.0657H64.0657H64.0656H64.0656H64.0656H64.0655H64.0655H64.0654H64.0654H64.0654H64.0653H64.0653H64.0652H64.0652H64.0652H64.0651H64.0651H64.065H64.065H64.065H64.0649H64.0649H64.0648H64.0648H64.0647H64.0647H64.0647H64.0646H64.0646H64.0645H64.0645H64.0644H64.0644H64.0644H64.0643H64.0643H64.0642H64.0642H64.0641H64.0641H64.0641H64.064H64.064H64.0639H64.0639H64.0638H64.0638H64.0637H64.0637H64.0636H64.0636H64.0635H64.0635H64.0634H64.0634H64.0633H64.0633H64.0632H64.0632H64.0631H64.0631H64.063H64.063H64.0629H64.0629H64.0628H64.0628H64.0627H64.0627H64.0626H64.0626H64.0625H64.0625H64.0624H64.0624H64.0623H64.0623H64.0622H64.0622H64.0621H64.0621H64.062H64.062H64.062H64.0619H64.0619H64.0618H64.0618H64.0617H64.0617H64.0617H64.0617H64.0616H64.0616H64.0616H64.0615H64.0615H64.0615H64.0614H64.0614H64.0614H64.0613H64.0613H64.0613H64.0612H64.0612H64.0612H64.0611H64.0611H64.0611H64.0611H64.061H64.061H64.061H64.0609H64.0609H64.0609H64.0608H64.0608H64.0608H64.0607H64.0607H64.0606H64.0606H64.0606H64.0605H64.0605H64.0605H64.0604H64.0604H64.0604H64.0603H64.0603H64.0603H64.0602H64.0602H64.0602H64.0601H64.0601H64.06H64.06H64.06H64.0599H64.0599H64.0599H64.0598H64.0598H64.0597H64.0597H64.0597H64.0596H64.0596H64.0596H64.0595H64.0595H64.0594H64.0594V54.3083L64.051 54.3086C61.5587 54.4045 60.1557 53.9405 59.3798 53.4655C58.6888 53.0425 58.4804 52.6018 58.4416 52.5067L69.4085 92.8702ZM43.2665 7.29595L43.2969 7.30727C44.0409 7.584 44.7058 8.1706 45.2974 8.87019C45.8907 9.57175 46.4261 10.4062 46.9054 11.2038C47.0424 11.4233 47.2654 11.8154 47.5577 12.3334C49.6373 15.9912 52.1451 20.2369 54.5465 23.5416C55.7478 25.1947 56.9165 26.604 57.9864 27.5853C58.5212 28.0759 59.0256 28.4542 59.4917 28.7029C59.9585 28.952 60.3734 29.0641 60.7351 29.0425C60.7353 29.0425 60.7355 29.0425 60.7357 29.0425L60.749 29.2617L43.2665 7.29595ZM43.2665 7.29595L43.2341 7.29392M43.2665 7.29595L43.2341 7.29392M43.2341 7.29392C40.6029 7.12885 38.9722 6.4427 37.8532 5.55072C36.7296 4.65506 36.1009 3.53711 35.4942 2.45112C35.3542 2.19788 35.2187 1.95376 35.0691 1.70898L43.2341 7.29392ZM11.7236 9.59793C11.7238 9.59808 11.724 9.59822 11.7241 9.59837L11.8681 9.4325L11.7231 9.5975C11.7233 9.59765 11.7235 9.59779 11.7236 9.59793ZM10.2602 7.68345C10.2601 7.68383 10.2599 7.68422 10.2598 7.6846L10.4703 7.74719L10.2605 7.68233C10.2604 7.68271 10.2603 7.68308 10.2602 7.68345ZM15.3197 6.3329L15.3524 6.55008L15.3201 6.33284L15.3197 6.3329ZM28.9203 2.80522C28.9202 2.80531 28.92 2.8054 28.9199 2.80548L29.0356 2.99218L28.9207 2.80498C28.9206 2.80506 28.9205 2.80514 28.9203 2.80522Z" fill="#383565" stroke="#58567C" stroke-width="0.439261"/>
</svg>
