<svg width="147" height="58" viewBox="0 0 147 58" fill="none" xmlns="http://www.w3.org/2000/svg">
<path d="M129.5 56.8224L129.389 56.571C128.712 55.0239 127.443 53.6766 125.826 52.4046C124.216 51.1381 122.279 49.961 120.272 48.7408L120.249 48.7262C119.411 48.2239 118.581 47.7149 117.757 47.1992L117.756 47.1986C116.245 46.241 114.246 45.9032 112.139 45.8675C110.05 45.8321 107.885 46.0938 106.038 46.3173L106.003 46.3215L106.002 46.3216L105.99 46.3231C104.984 46.446 103.996 46.5666 103.189 46.6112C102.785 46.6336 102.418 46.6373 102.114 46.6111C101.819 46.5855 101.549 46.5294 101.362 46.408M129.5 56.8224L101.482 46.2239M129.5 56.8224L129.721 56.6599C130.737 55.913 133.843 53.5383 137.126 50.0442C140.406 46.5521 143.876 41.9285 145.602 36.6822C146.585 33.6951 146.585 31.3656 145.5 29.8261C144.688 28.6739 143.363 28.0928 141.982 27.7894C140.602 27.4866 139.128 27.4526 137.973 27.426L137.962 27.4257L137.961 27.4257C137.286 27.4123 136.796 27.3989 136.434 27.3561C136.067 27.3129 135.872 27.2431 135.756 27.1477L135.755 27.1471C135.676 27.0832 135.599 27.0247 135.531 26.9735C135.504 26.9531 135.479 26.934 135.456 26.9161L135.454 26.9149C135.188 26.714 135.01 26.5672 134.876 26.3679C134.743 26.1712 134.641 25.906 134.57 25.4559C134.426 24.5425 134.418 22.9555 134.452 19.8497L134.518 13.2086L134.52 13.0783L134.406 13.0147C134.093 12.8397 133.379 12.4492 132.583 12.0709C131.793 11.6954 130.9 11.3214 130.235 11.1918L130.235 11.1917L130.228 11.1906L130.158 11.1794L130.156 11.1732L130.13 11.0803L130.043 11.0371C130.037 11.0337 130.03 11.0309 130.026 11.0288L130.007 11.0192C129.991 11.0107 129.983 11.0062 129.976 11.002C129.975 11.0015 129.974 11.001 129.974 11.0006C129.973 10.9997 129.973 10.9986 129.972 10.9973C129.957 10.9587 129.938 10.8602 129.932 10.6015C129.921 10.0985 129.957 9.11661 130.031 7.12869L130.151 3.81808L130.169 3.33401L129.793 3.63974C128.449 4.73351 127.294 5.33415 125.985 5.72554C124.676 6.11681 123.21 6.30069 121.226 6.54947L121.184 6.55483L121.184 6.55485L120.114 6.6886L120.113 6.68867C117.506 7.02135 116.314 7.69103 115.17 8.34068L115.167 8.34244C114.509 8.71305 113.887 9.06392 113.034 9.3257C112.18 9.58788 111.086 9.76328 109.494 9.76328C109.313 9.76328 109.136 9.76325 108.953 9.7567L108.95 9.75663L108.84 9.75433L108.837 9.64538C108.837 9.64502 108.837 9.64466 108.837 9.6443C108.831 9.1703 108.804 8.71753 108.77 8.30001L108.753 8.09144L108.544 8.09814C105.819 8.18551 103.916 8.48824 102.355 8.93407C100.813 9.37433 99.6119 9.95226 98.2977 10.5847L98.2509 10.6072M129.5 56.8224L98.2509 10.6072M101.362 46.408L101.482 46.2239M101.362 46.408C101.362 46.408 101.362 46.4081 101.362 46.4081L101.482 46.2239M101.362 46.408C101.062 46.213 100.85 45.9272 100.684 45.6205C100.525 45.3282 100.4 45.0004 100.283 44.692L100.267 44.6503L100.266 44.6489C100.121 44.2606 99.9812 43.8923 99.7892 43.5849C99.6003 43.2822 99.3697 43.0534 99.0503 42.9317M101.482 46.2239C100.977 45.8959 100.729 45.246 100.486 44.6089L100.472 44.572C100.185 43.8029 99.8836 43.0138 99.1279 42.7262M99.0503 42.9317C99.0506 42.9318 99.0509 42.9319 99.0512 42.932L99.1279 42.7262M99.0503 42.9317C98.516 42.7331 97.7824 42.8591 96.6845 43.4543L96.6838 43.4547C95.2615 44.2195 93.5756 44.4226 91.9102 44.3786C90.2495 44.3348 88.586 44.0443 87.1935 43.8011L87.1792 43.7986L87.1785 43.7985C86.1981 43.6239 85.3693 43.4795 84.7094 43.4403L84.7083 43.4403C84.3755 43.4188 83.9656 43.5297 83.4891 43.782C83.0152 44.0329 82.4923 44.4145 81.9397 44.9095C80.8348 45.8992 79.6305 47.3239 78.4835 49.0028L78.3496 49.1989L78.1646 49.0501C77.465 48.4878 75.5396 46.9287 73.593 45.3067C71.6512 43.6887 69.6741 41.9964 68.8814 41.1732L68.881 41.1727C68.6109 40.8906 68.3608 40.7949 68.1161 40.8243L68.1157 40.8243C67.8373 40.8572 67.5637 41.0574 67.2583 41.4437C66.9554 41.8269 66.6547 42.3492 66.3077 42.9557L66.3071 42.9566L66.2961 42.9757C65.8357 43.7707 65.3098 44.6787 64.6637 45.4511C64.0119 46.2304 63.2222 46.891 62.2285 47.1582C60.1391 47.7247 58.7036 46.4568 57.2993 45.2165L57.2709 45.1914L57.2708 45.1914C56.6934 44.6811 56.1158 44.1761 55.5008 43.8026C54.8885 43.4307 54.2536 43.1983 53.5643 43.2199L53.5624 43.22C52.8924 43.2352 52.3374 43.515 51.8202 43.958C51.2977 44.4057 50.8283 45.0069 50.3266 45.6501L50.3107 45.6705C49.654 46.5153 48.9617 47.406 48.0638 48.0455C47.1479 48.6978 46.0237 49.0862 44.514 48.937C42.0054 48.695 40.4656 46.9586 39.497 44.5848C38.5304 42.2156 38.1107 39.1652 37.8564 36.1909M99.0503 42.9317C99.0501 42.9316 99.0499 42.9315 99.0498 42.9315L99.1279 42.7262M99.1279 42.7262C98.4992 42.4921 97.69 42.6593 96.5798 43.2612C93.8338 44.7378 90.0198 44.0717 87.225 43.5836L38.0753 36.1722M46.1541 7.15398C47.6388 7.39474 48.8292 7.06704 49.7922 6.79953L49.7937 6.79913C51.2975 6.38474 52.1199 6.15813 53.0425 8.15714M46.1541 7.15398L46.1898 6.93726C46.1897 6.93726 46.1897 6.93725 46.1897 6.93725M46.1541 7.15398L46.1893 6.93718C46.1894 6.9372 46.1895 6.93722 46.1897 6.93725M46.1541 7.15398C44.0408 6.80621 43.3118 5.68936 42.5427 4.50563C41.9007 3.52253 41.1784 2.41904 39.5131 1.5162C36.089 -0.336314 33.2333 1.53626 30.9461 3.04101M46.1897 6.93725C47.6225 7.16951 48.7717 6.85506 49.7335 6.58791L49.7339 6.58779L49.7436 6.5851C50.1127 6.48339 50.4557 6.38889 50.7705 6.33864C51.0902 6.28762 51.3978 6.27906 51.6943 6.36134C52.2999 6.52939 52.7731 7.04939 53.2419 8.0651M46.1897 6.93725C45.1697 6.7694 44.4976 6.41922 43.9882 5.97739C43.4727 5.53018 43.1138 4.98151 42.7269 4.38597L42.7266 4.38554C42.0809 3.39676 41.3338 2.25345 39.6178 1.32312L39.6177 1.32302C36.0728 -0.594783 33.1105 1.35417 30.8416 2.84688L30.8272 2.85636M53.2419 8.0651C53.2419 8.06504 53.2418 8.06498 53.2418 8.06491L53.0425 8.15714M53.2419 8.0651L53.0425 8.15714M53.2419 8.0651C53.4243 8.45925 53.6116 8.90436 53.811 9.3781C53.8405 9.44811 53.8702 9.51875 53.9003 9.58994M53.0425 8.15714C53.2231 8.54758 53.4089 8.98882 53.6085 9.46312C53.638 9.53314 53.6678 9.60388 53.6979 9.67528M53.6979 9.67528L53.9001 9.58963C53.9002 9.58973 53.9002 9.58984 53.9003 9.58994M53.6979 9.67528C55.216 13.2599 57.4297 18.483 61.877 18.483C62.3987 18.483 62.9471 18.4162 63.5356 18.2557C66.4715 17.4799 68.0431 16.5035 69.3004 15.721L69.3246 15.706C70.6487 14.885 71.5317 14.3375 73.3332 14.4838M53.6979 9.67528L53.9003 9.58994M53.9003 9.58994C54.6613 11.3868 55.5847 13.5636 56.8655 15.2927C58.1447 17.0197 59.7526 18.2634 61.877 18.2634C62.3793 18.2634 62.9083 18.1991 63.4778 18.0438L63.4795 18.0433C66.3846 17.2757 67.9346 16.3123 69.1844 15.5345L69.1847 15.5343L69.2197 15.5127C69.869 15.11 70.435 14.759 71.0635 14.5299C71.7108 14.2939 72.4166 14.189 73.3509 14.2648M73.3509 14.2648L73.3332 14.4838M73.3509 14.2648C73.3509 14.2648 73.3509 14.2648 73.3509 14.2648L73.3332 14.4838M73.3509 14.2648C75.0306 14.4007 79.026 14.3964 83.2817 14.0975C87.5429 13.7982 92.0274 13.2057 94.7021 12.1788L94.7808 12.3838M73.3332 14.4838C76.7239 14.758 89.3637 14.4637 94.7808 12.3838M94.7808 12.3838L94.7021 12.1788C96.014 11.6751 97.093 11.16 98.0549 10.7008C98.1205 10.6694 98.1856 10.6384 98.2502 10.6076M94.7808 12.3838C96.1011 11.877 97.1871 11.3585 98.1486 10.8994C98.2148 10.8678 98.2804 10.8365 98.3454 10.8055L98.2502 10.6076M98.2502 10.6076L98.2509 10.6072M98.2502 10.6076L98.2509 10.6072M30.8272 2.85636L30.829 2.85521L30.9461 3.04101M30.8272 2.85636L30.5213 3.04916L30.5213 3.04914L30.5182 3.05119C30.1455 3.29508 29.6084 3.4602 28.9443 3.55835C28.2837 3.65601 27.516 3.68486 26.6961 3.6691C25.0612 3.63767 23.2445 3.42972 21.6974 3.25262L21.6818 3.25083L21.6817 3.25081C21.6461 3.24677 21.6104 3.24269 21.5746 3.23861C21.0784 3.18202 20.5551 3.12235 20.1226 3.0831C19.8909 3.06208 19.682 3.04661 19.5156 3.04075C19.4325 3.03783 19.3571 3.03719 19.2932 3.03983C19.2342 3.04228 19.1678 3.04798 19.112 3.06489L19.1029 3.06764L19.0941 3.07116C19.045 3.09081 19.0032 3.12232 18.9743 3.14631C18.9421 3.17302 18.909 3.20485 18.8765 3.23847C18.8114 3.30583 18.7379 3.39128 18.663 3.48288C18.532 3.64291 18.387 3.83306 18.2598 3.99994C18.2412 4.0243 18.223 4.04817 18.2053 4.07137L18.2048 4.07198C17.815 4.58616 17.3657 5.17844 16.8624 5.65732C16.3564 6.13887 15.8247 6.47724 15.2768 6.52731L15.2768 6.52731L15.2749 6.52749C14.8143 6.57355 14.3656 6.41051 13.9335 6.01547L13.9329 6.01493C12.9271 5.1021 11.8075 4.49929 10.2201 4.5159C8.64955 4.53233 6.64434 5.15523 3.85859 6.62529M30.8272 2.85636L30.8254 2.85752L30.9461 3.04101M30.9461 3.04101L30.6385 3.23496C28.997 4.30928 24.7722 3.82566 21.6776 3.47141L21.6568 3.46903L21.5504 3.45691C20.5208 3.3395 19.389 3.21044 19.1757 3.27508C19.0504 3.32518 18.7083 3.77393 18.4346 4.13281C18.416 4.15723 18.3977 4.18124 18.3798 4.20467L18.3769 4.20849C17.6014 5.23139 16.5391 6.63248 15.2967 6.74603C14.7617 6.79953 14.2535 6.60559 13.7853 6.17757C11.8325 4.40531 9.51184 3.89035 3.961 6.81959M3.85859 6.62529C3.85864 6.62527 3.85868 6.62524 3.85873 6.62522L3.961 6.81959M3.85859 6.62529C1.44698 7.89427 0.88447 10.3286 0.975313 12.5624C1.06624 14.7983 1.81066 16.9002 2.09109 17.6198L2.15985 17.7963L2.34451 17.7542C4.56688 17.2479 6.5684 17.476 7.92012 18.1132L7.9207 18.1135C8.6075 18.4349 9.19193 18.8422 9.77152 19.2461C9.79024 19.2591 9.80896 19.2722 9.82768 19.2852M3.85859 6.62529C3.85856 6.62531 3.85853 6.62533 3.85849 6.62534L3.961 6.81959M3.961 6.81959C-0.640186 9.24056 1.74064 16.1156 2.29573 17.5401C4.55619 17.0251 6.60935 17.2525 8.01378 17.9146C8.71797 18.2441 9.31606 18.6609 9.89246 19.0627C9.91274 19.0768 9.93299 19.0909 9.95323 19.105M9.82768 19.2852L9.82756 19.2851L9.95323 19.105M9.82768 19.2852L9.85308 19.3029C10.6937 19.8894 11.4786 20.4371 12.3883 20.5388C13.3264 20.6436 14.3463 20.2744 15.665 19.1665M9.82768 19.2852L9.95323 19.105M9.95323 19.105C11.6787 20.3088 12.9293 21.1782 15.5241 18.998M15.665 19.1665C15.6649 19.1666 15.6647 19.1667 15.6646 19.1668L15.5241 18.998M15.665 19.1665C16.6296 18.3637 17.5373 17.31 18.4814 16.214L18.5061 16.1854L18.5061 16.1853C19.8169 14.6628 21.185 13.0784 22.7371 12.1828C23.5081 11.738 24.3163 11.4685 25.1782 11.4596C26.0392 11.4507 26.9706 11.7015 27.9893 12.3238M15.665 19.1665C15.6651 19.1664 15.6653 19.1663 15.6654 19.1662L15.5241 18.998M15.5241 18.998C16.4748 18.2069 17.3726 17.1646 18.3227 16.0618L18.3397 16.042C20.9479 13.0125 23.9106 9.57495 28.1038 12.1364M27.9893 12.3238C27.9893 12.3238 27.9893 12.3238 27.9893 12.3238L28.1038 12.1364M27.9893 12.3238C29.5213 13.2604 30.1546 14.472 30.3579 15.7872C30.5639 17.1197 30.3294 18.56 30.1008 19.9518M27.9893 12.3238L28.1038 12.1364M28.1038 12.1364C31.2872 14.0825 30.7722 17.2191 30.3175 19.9878M30.1008 19.9518C30.1008 19.9517 30.1009 19.9516 30.1009 19.9515L30.3175 19.9878M30.1008 19.9518C29.9281 20.9812 29.7623 21.9733 29.8064 22.8256C29.851 23.6871 30.1121 24.4428 30.8236 24.9605L30.9528 24.7829M30.1008 19.9518C30.1008 19.9519 30.1008 19.9521 30.1007 19.9522L30.3175 19.9878M30.3175 19.9878C29.9697 22.061 29.6754 23.8533 30.9528 24.7829M30.9528 24.7829C35.2998 27.9462 37.6941 31.7783 38.0753 36.1722M30.9528 24.7829L30.8236 24.9605C35.1313 28.0952 37.4818 31.8741 37.8564 36.1909M38.0753 36.1722L37.8565 36.1912C37.8564 36.1911 37.8564 36.191 37.8564 36.1909M38.0753 36.1722L37.8564 36.1909M78.1306 48.7408C76.4522 47.3881 70.5476 42.5868 69.0396 41.0208C68.7387 40.7065 68.4243 40.5661 68.09 40.6062C67.3543 40.6931 66.8059 41.6428 66.1171 42.8466L66.1101 42.8585C65.1818 44.4615 64.0325 46.4458 62.1713 46.9462C60.1984 47.4812 58.8475 46.2908 57.4163 45.0268C56.266 44.0102 55.0488 42.9536 53.5575 43.0004C52.089 43.0338 51.1535 44.233 50.1592 45.5076L50.1534 45.515L50.1469 45.5234C48.818 47.2329 47.4401 49.0055 44.5356 48.7184L78.1306 48.7408ZM78.1306 48.7408C78.1273 48.7455 78.1241 48.7503 78.1208 48.7551L78.3022 48.8789L78.4398 48.7078C78.4356 48.7044 78.4313 48.701 78.427 48.6975L78.1306 48.7408ZM129.591 56.4829C129.561 56.4145 129.53 56.3465 129.497 56.2788C129.485 56.2881 129.473 56.2971 129.461 56.3059L129.591 56.4829ZM129.591 56.4829L129.792 56.3948C129.785 56.3795 129.778 56.3642 129.772 56.349C129.705 56.3983 129.645 56.4429 129.591 56.4829Z" fill="#383565" stroke="#58567C" stroke-width="0.439261"/>
</svg>
