<svg width="102" height="116" viewBox="0 0 102 116" fill="none" xmlns="http://www.w3.org/2000/svg">
<path d="M90.8421 91.2255L90.8419 91.2255C89.4974 91.1215 88.1526 91.0181 86.8889 91.1201C85.628 91.2219 84.4657 91.5274 83.4827 92.2286C82.5894 92.8695 81.2148 93.5971 79.5868 94.3747C77.9556 95.1538 76.0564 95.9895 74.1078 96.8452L90.8421 91.2255ZM90.8421 91.2255L90.8831 91.2286C92.2686 91.3342 93.6367 91.4384 94.881 91.3179C96.1418 91.1958 97.2979 90.8412 98.2344 90.0068C100.665 87.8423 101.36 85.0344 100.943 83.3043C100.717 82.3612 100.17 81.6914 99.3744 81.4846M90.8421 91.2255L88.5582 30.4823M88.1449 30.0501C87.972 30.0703 87.8189 30.1797 87.6934 30.2985C87.5622 30.4228 87.4299 30.5878 87.2997 30.7717C87.0395 31.1393 86.7651 31.6152 86.5026 32.0703L86.5021 32.0712L86.5019 32.0716C86.0089 32.9302 85.465 33.8721 84.7831 34.6717C84.1027 35.4696 83.2971 36.1108 82.2881 36.3828C80.0966 36.97 78.5662 35.6406 77.1204 34.3637L77.12 34.3634L77.062 34.3124C76.5335 33.8477 76.003 33.3813 75.451 33.0341C74.8757 32.6723 74.2591 32.4279 73.5716 32.4496C72.9231 32.4649 72.3839 32.7628 71.8988 33.1928C71.4174 33.6194 70.97 34.1938 70.5084 34.7882L70.5081 34.7885C69.1995 36.4796 67.636 38.4767 64.4903 38.1686L64.4902 38.1686C61.6243 37.89 59.9934 35.7232 59.0303 33.0462C58.0676 30.3707 57.7997 27.2544 57.6255 25.207L57.6254 25.2068C57.2576 20.9359 54.9128 17.218 50.6875 14.147L50.6874 14.1469C49.949 13.6107 49.6523 12.8675 49.5861 11.9702C49.5191 11.0614 49.6903 10.0215 49.872 8.91755L49.8722 8.91645L49.8722 8.91635L49.8778 8.88231C50.0955 7.55677 50.3235 6.1682 50.1396 4.89523C49.9513 3.59256 49.3325 2.41055 47.8707 1.51739C46.9161 0.933303 46.0238 0.676501 45.1759 0.681817C44.3287 0.68713 43.5439 0.954086 42.8039 1.38832C41.344 2.24496 40.0236 3.77615 38.6982 5.31314L38.6752 5.33987L38.6751 5.33996L38.6699 5.34592C37.7391 6.42406 36.7896 7.52383 35.8176 8.34487C34.3508 9.5754 33.2497 9.87814 32.3265 9.76216C31.3849 9.64387 30.5802 9.08855 29.6978 8.47326C29.1246 8.07335 28.5151 7.64814 27.8206 7.31811L27.8202 7.31793C25.3728 6.16045 18.8201 6.08896 13.8389 12.9314L13.8388 12.9315C9.74898 18.5566 3.21949 20.8998 1.4918 21.438L1.2236 21.5216L1.36939 21.7617C1.45667 21.9054 1.53949 22.0566 1.62419 22.2112C1.64679 22.2525 1.66953 22.294 1.69252 22.3357L1.69251 22.3357L1.69332 22.3371L1.70635 22.3603C2.29541 23.4094 2.91686 24.5162 4.02865 25.3916C5.15126 26.2754 6.75172 26.9082 9.27842 27.0623L9.34156 27.0759C10.086 27.3442 10.7559 27.8902 11.3782 28.6028C12.0036 29.3191 12.569 30.1899 13.1059 31.0836L13.1063 31.0843C13.1877 31.2185 13.3012 31.4172 13.4472 31.6728C13.5384 31.8325 13.6423 32.0143 13.759 32.2166C16.8703 37.6898 19.496 41.8229 21.6227 44.5902C22.6856 45.9733 23.6293 47.0224 24.4517 47.7278C25.2653 48.4257 25.9962 48.819 26.6295 48.819C26.6589 48.819 26.6859 48.8154 26.6969 48.814C26.7041 48.8131 26.708 48.8127 26.7098 48.8125V48.8128L26.7237 48.8119C28.6621 48.6887 30.3207 48.6887 31.4974 48.7203C32.0856 48.7361 32.5533 48.7598 32.875 48.7799C33.0358 48.79 33.16 48.7992 33.2445 48.806C33.2631 48.8075 33.2797 48.8088 33.2943 48.8101C33.313 48.8117 33.3283 48.8131 33.3404 48.8142L33.3581 48.8159L33.3619 48.8169L33.3801 48.8183L33.4929 48.8274L32.6666 57.8187C32.5756 58.0538 31.973 59.5245 30.7499 61.2229C29.465 63.0072 27.5053 65.0291 24.7481 66.1451L24.6137 66.1996L24.6109 66.3446C24.5774 68.1357 24.6511 71.8519 24.6645 72.3932L24.6657 72.4435L24.6887 72.4882C24.8606 72.8223 25.8743 74.2537 30.0384 74.0787H30.0604C30.2118 74.0787 30.4104 74.1365 30.653 74.2662C30.8929 74.3945 31.1605 74.5849 31.4455 74.8292C32.0152 75.3177 32.6374 76.0071 33.2253 76.8004C34.4059 78.3934 35.4168 80.3614 35.6072 81.9046L35.6073 81.905C35.9858 84.9327 35.8869 92.0296 35.6125 97.7304C35.4885 100.276 35.4953 104.06 35.5329 107.217C35.5517 108.796 35.5783 110.22 35.6001 111.255C35.611 111.772 35.6208 112.192 35.6278 112.487L35.6361 112.829L35.6383 112.923C35.6389 112.947 35.639 112.956 35.639 112.956V113.056V113.227L35.8049 113.269C38.7718 114.017 41.4078 114.572 43.0187 114.64L43.0192 114.64C45.4738 114.738 47.6498 114.367 49.5952 113.976C49.8927 113.916 50.1842 113.856 50.47 113.797C52.0639 113.468 53.483 113.175 54.7917 113.175C55.8541 113.175 56.9938 113.291 58.0249 113.578C59.0581 113.865 59.9652 114.32 60.5829 114.984L60.9771 115.409L60.9634 114.83C60.9401 113.847 60.9136 111.431 61.1613 108.948C61.2853 107.707 61.4772 106.454 61.7705 105.357C62.0649 104.256 62.4558 103.335 62.9641 102.739L62.9643 102.739C63.2849 102.362 63.8321 101.936 64.5652 101.473C65.2947 101.012 66.1936 100.523 67.205 100.015C69.1751 99.0252 71.5571 97.9725 73.9178 96.9291L74.1074 96.8454L88.1703 30.2682M88.1449 30.0501L88.1703 30.2682M88.1449 30.0501C88.1448 30.0501 88.1448 30.0501 88.1447 30.0501L88.1703 30.2682M88.1449 30.0501C88.3713 30.0236 88.5652 30.1718 88.717 30.3304M88.1703 30.2682C88.284 30.2549 88.4111 30.3284 88.5582 30.4823M88.717 30.3304C88.7169 30.3303 88.7168 30.3302 88.7166 30.3301L88.5582 30.4823M88.717 30.3304L88.5582 30.4823M88.717 30.3304C89.5194 31.1658 91.5195 32.8789 93.4965 34.526C95.4689 36.1692 97.4039 37.735 98.0658 38.2699L98.2204 38.3947L98.1116 38.561C96.1957 41.488 94.5108 45.054 93.8158 48.3571L93.8157 48.3573C92.8399 52.9658 93.9686 56.3313 95.0776 59.6383L95.0797 59.6444L95.0797 59.6446L95.0862 59.664C95.8244 61.8584 96.536 63.974 96.5156 66.3173C96.5053 67.4498 96.241 68.3398 95.7808 69.0389C95.3209 69.7376 94.6761 70.2296 93.9309 70.584C92.4668 71.2802 90.5772 71.4604 88.85 71.6252L88.7998 71.63L88.7987 71.6301C87.9806 71.7039 87.2091 71.7766 86.5528 71.9013L86.552 71.9015C85.8755 72.0274 85.3803 72.3215 85.0653 72.7391C84.7499 73.1571 84.5971 73.7226 84.6509 74.4242L84.6509 74.4244C84.7079 75.1784 85.021 76.0338 85.4673 76.7033C85.9218 77.385 86.469 77.8097 86.9671 77.8261C87.7129 77.8469 88.242 77.934 88.9837 78.3347C89.7067 78.7254 90.6365 79.4169 92.1968 80.6271C93.1783 81.3844 94.0186 81.6809 94.7632 81.7622C95.5138 81.8441 96.1827 81.7098 96.8406 81.5756C97.6393 81.4092 98.4492 81.2427 99.3744 81.4846M99.3744 81.4846C99.3743 81.4846 99.3741 81.4846 99.374 81.4846L99.3188 81.6971L99.3744 81.4846C99.3744 81.4846 99.3744 81.4846 99.3744 81.4846ZM50.5584 14.3246C48.9514 13.1577 49.2923 11.0866 49.6523 8.90012L49.6555 8.88077L49.658 8.86568C50.0986 6.18191 50.5531 3.41368 47.7562 1.70481C44.0537 -0.56079 41.5267 2.36957 38.8469 5.47702L50.5584 14.3246ZM50.5584 14.3246C54.7449 17.3675 57.0455 21.0324 57.4066 25.2257L50.5584 14.3246ZM27.7264 7.51648C25.3789 6.40631 18.9386 6.29929 14.0164 13.0606C10.038 18.5326 3.7853 20.9247 1.77221 21.5792C1.76313 21.564 1.75402 21.5488 1.74487 21.5337L1.55713 21.6477L1.62246 21.8574C1.63819 21.8525 1.65433 21.8474 1.67085 21.8422C1.72062 21.9301 1.76949 22.0193 1.81807 22.108C1.84036 22.1487 1.86259 22.1893 1.88482 22.2296L1.89061 22.2399C3.07922 24.3567 4.30722 26.5437 9.30824 26.8441L27.7264 7.51648ZM27.7264 7.51648C28.4018 7.83749 28.997 8.25212 29.5722 8.65339L27.7264 7.51648Z" fill="#383565" stroke="#58567C" stroke-width="0.439261"/>
</svg>
