<svg width="149" height="137" viewBox="0 0 149 137" fill="none" xmlns="http://www.w3.org/2000/svg">
<path d="M147.939 62.1754L147.938 62.1762C147.771 62.4755 147.406 62.7034 146.976 62.8881C146.535 63.0779 145.975 63.2423 145.357 63.3881C144.131 63.6774 142.642 63.9014 141.318 64.1004L141.285 64.1054L141.285 64.1055C139.636 64.3502 138.357 64.5507 137.46 64.7948C137.011 64.9169 136.672 65.0462 136.434 65.1891C136.197 65.3315 136.081 65.4741 136.039 65.616L136.039 65.6164C135.953 65.9049 136.054 66.2106 136.344 66.5808C136.635 66.9513 137.075 67.3362 137.571 67.7687L137.572 67.7691C138.407 68.5011 139.158 69.2027 139.572 69.9232C139.782 70.288 139.911 70.6676 139.917 71.0666C139.923 71.4674 139.804 71.8699 139.545 72.2784L139.545 72.2786C139.154 72.8961 138.815 73.481 138.521 74.001L138.521 74.0022L138.519 74.0041C138.178 74.6015 137.862 75.1532 137.558 75.5671C137.406 75.775 137.25 75.9563 137.089 76.0941C136.929 76.2315 136.752 76.3355 136.556 76.3698M147.939 62.1754L135.401 75.652L135.258 75.8191C135.717 76.2104 136.155 76.4423 136.556 76.3698M147.939 62.1754C148.464 61.2254 148.451 60.0582 147.894 59.1337C147.002 57.6377 144.901 56.8937 142.093 56.9206L142.093 56.9206C138.426 56.9606 136.044 56.3235 134.726 55.0248M147.939 62.1754L134.726 55.0248M136.556 76.3698C136.556 76.3699 136.556 76.3699 136.555 76.3699L136.518 76.1536L136.557 76.3697C136.557 76.3697 136.556 76.3698 136.556 76.3698ZM78.8933 99.8538L78.9693 99.6477L78.8933 99.8538ZM78.8933 99.8538C79.7177 100.158 80.9177 100.208 82.2542 100.147C83.5657 100.086 85.0429 99.9168 86.4856 99.7513L86.5942 99.7388C88.0759 99.5688 89.5143 99.4062 90.7142 99.3688C91.3138 99.35 91.847 99.3628 92.2918 99.4199C92.7403 99.4774 93.0791 99.5776 93.3044 99.7197C93.8151 100.042 95.0001 101.059 96.5675 102.453M78.8933 99.8538L96.5675 102.453M35.6861 135.574C35.7839 135.533 35.8345 135.512 35.8606 135.501C35.8886 135.489 35.8886 135.489 35.8886 135.489L35.8884 135.489L35.8875 135.487L35.8839 135.478L35.8699 135.445L35.8352 135.362C35.7374 135.5 35.6861 135.574 35.6861 135.574ZM35.6861 135.574C35.6861 135.574 35.651 135.491 35.5856 135.335C35.5671 135.361 35.5517 135.383 35.5396 135.4L35.5142 135.437L35.5078 135.446L35.5061 135.449L35.5057 135.449C35.5056 135.449 35.5055 135.449 35.6861 135.574ZM54.1109 119.276L53.8979 119.33C53.8928 119.309 53.8875 119.289 53.8821 119.268C53.9589 119.268 54.0352 119.271 54.1109 119.276ZM54.1109 119.276L54.1253 119.057C54.101 119.056 54.0766 119.054 54.0522 119.053C54.0734 119.13 54.093 119.205 54.1109 119.276ZM91.2681 1.67193L91.2526 1.45285L91.2527 1.45284L91.2533 1.45281L91.2555 1.45265L91.2646 1.45198L91.3029 1.44916L91.4654 1.43677C91.6144 1.4252 91.8481 1.40663 92.1863 1.37865C92.8628 1.3227 93.9572 1.22913 95.6285 1.07871C96.1128 1.03349 96.647 0.923185 97.2124 0.758827L97.5255 0.667821L97.4922 0.992135C97.3892 1.99643 97.4452 4.67027 100.506 6.15578L100.506 6.15591C102.345 7.05118 103.746 8.24401 104.807 9.90156C105.865 11.5551 106.576 13.6593 107.054 16.3669M91.2681 1.67193L119.316 42.7417C119.289 43.0689 118.806 48.803 121.791 50.7401C123.43 51.8034 125.77 51.4958 128.746 49.8105M91.2681 1.67193L91.2526 1.45285L91.0938 1.46412L91.0551 1.61855L91.0551 1.61857L91.0551 1.61868L91.0549 1.61941L91.054 1.62271L91.0505 1.63654L91.0359 1.69201C91.0228 1.74096 91.003 1.81326 90.9765 1.90565C90.9235 2.09048 90.8436 2.35554 90.7367 2.67483C90.5226 3.31404 90.2009 4.16758 89.7701 5.02875C89.3385 5.89146 88.8022 6.75226 88.162 7.41303C87.5219 8.07374 86.793 8.51967 85.9731 8.58892C84.2609 8.72992 83.268 8.09195 82.698 7.43646C82.4094 7.10463 82.2252 6.76332 82.1133 6.50481C82.0575 6.37581 82.02 6.26826 81.9967 6.19402C81.9851 6.15693 81.9771 6.12825 81.9721 6.10946L81.9668 6.08892L81.9658 6.0846L81.9657 6.08442L81.9657 6.08421L81.9656 6.08407L81.9656 6.08398L81.9258 5.90724L81.7443 5.91317L74.983 6.13386L74.7844 6.14034L74.771 6.33851L74.4032 11.7623L74.4014 11.7879L74.4051 11.8095L74.4051 11.8102L74.4052 11.8104L74.4054 11.8115L74.4055 11.8133C74.406 11.8184 74.4067 11.8285 74.407 11.8436C74.4077 11.8736 74.4065 11.9235 74.3975 11.9925C74.3794 12.1302 74.3299 12.3461 74.1991 12.6337C73.9372 13.2092 73.3479 14.0759 72.0281 15.1755C69.3862 17.3767 63.8476 20.4863 52.2731 24.0495L49.4302 24.5679L49.0732 24.6331L49.0286 24.6412L49.023 24.6422L49.0223 24.6423L49.0222 24.6424L49.0221 24.6424L49.022 24.6424L49.0217 24.6425C48.9729 24.6651 48.9325 24.6979 48.9282 24.7351L48.9003 24.7094L41.2186 33.0224L33.365 34.5003L33.3198 34.5088L33.2817 34.5348L27.3363 38.5943L27.0523 38.7882L27.3477 38.9643L31.7244 41.574C31.6549 41.627 31.572 41.6901 31.4763 41.7626C31.1507 42.0092 30.6783 42.3638 30.0919 42.795C28.9189 43.6573 27.2902 44.8256 25.4669 46.0493C21.8108 48.5032 17.4038 51.1584 14.3185 52.0403L13.9864 52.1353L14.2133 52.3957C14.4789 52.7007 14.8606 53.082 15.3262 53.5472C18.3667 56.5845 24.9862 63.1974 26.2336 75.47C23.5853 76.2179 17.3913 78.3553 11.7287 80.638C8.83131 81.806 6.06675 83.0145 3.98411 84.0969C2.94351 84.6377 2.06678 85.1502 1.42733 85.6135C1.10776 85.845 0.842026 86.0681 0.643628 86.2802C0.448427 86.4889 0.301676 86.7044 0.248343 86.9221L0.196017 87.1358L0.409766 87.1878L0.46167 86.9744L91.2681 1.67193ZM107.054 16.3669L106.837 16.4051L107.054 16.3667C107.054 16.3668 107.054 16.3669 107.054 16.3669ZM107.054 16.3669C107.275 17.6185 108.082 18.9227 109.223 20.1988C110.361 21.4714 111.814 22.696 113.294 23.7889C116.255 25.9743 119.305 27.6151 120.115 28.0414L120.238 28.1066L120.232 28.2463L119.536 42.7453L119.536 42.7531L119.535 42.7531L119.535 42.7597C119.522 42.9171 119.398 44.3897 119.635 46.0646C119.879 47.7805 120.491 49.6348 121.911 50.5558C123.44 51.548 125.677 51.2955 128.634 49.6216M128.634 49.6216C128.633 49.6224 128.632 49.6232 128.63 49.6241L128.746 49.8105M128.634 49.6216C129.484 49.0925 130.227 48.7353 130.855 48.5614C131.482 48.388 132.027 48.3879 132.451 48.6217L132.451 48.6222C132.836 48.8366 133.098 49.2293 133.264 49.76C133.43 50.29 133.507 50.9805 133.507 51.8302C133.507 53.1651 133.924 54.2294 134.726 55.0248M128.634 49.6216C128.636 49.6208 128.637 49.6201 128.638 49.6194L128.746 49.8105M128.746 49.8105L134.726 55.0248M127.676 129.803L127.669 129.648C127.667 129.59 127.664 129.527 127.661 129.459C127.719 129.524 127.778 129.589 127.838 129.654L127.676 129.803ZM127.676 129.803C127.598 129.718 127.521 129.633 127.445 129.547C127.446 129.585 127.448 129.622 127.45 129.656L127.457 129.813L127.676 129.803ZM111.88 115.262L111.973 115.063L111.88 115.262C111.88 115.262 111.88 115.262 111.88 115.262ZM111.88 115.262C110.96 114.828 109.466 113.713 107.73 112.286M111.88 115.262L107.73 112.286M96.5675 102.453C97.3741 103.17 98.2743 103.98 99.2272 104.838M96.5675 102.453L99.2272 104.838M99.2272 104.838C100.119 105.641 101.058 106.485 102.01 107.334M99.2272 104.838L102.01 107.334M102.01 107.334C103.974 109.087 105.985 110.853 107.73 112.286M102.01 107.334L107.73 112.286M51.088 111.278C51.3077 111.281 51.3077 111.281 51.3077 111.281L51.3077 111.28L51.3077 111.278L51.3078 111.272L51.3081 111.246L51.3083 111.234L51.2968 111.207L51.2915 111.195L51.2902 111.192L51.2898 111.191L51.2897 111.191L51.088 111.278ZM58.8887 82.8674C58.8888 82.8674 58.8889 82.8675 58.889 82.8675L58.9796 82.6675L58.8887 82.8674ZM50.3536 89.6992C50.3536 89.6992 50.3537 89.6991 50.3537 89.6991C50.3538 89.699 50.3538 89.6989 50.3539 89.6988L50.1718 89.5759L50.3536 89.6992ZM131.558 74.4934C131.558 74.4934 131.558 74.4933 131.558 74.4933L131.502 74.281L131.558 74.4934ZM122.093 121.82L122.279 121.704L122.093 121.82C122.093 121.82 122.093 121.82 122.093 121.82Z" fill="#383565" stroke="#58567C" stroke-width="0.439261"/>
</svg>
