<svg width="21" height="21" viewBox="0 0 21 21" fill="none" xmlns="http://www.w3.org/2000/svg">
<path d="M1.35283 5.23548C1.35283 6.14918 1.40286 6.8272 1.51641 7.33812C1.62787 7.83968 1.78931 8.12832 1.97759 8.3166C2.16587 8.50488 2.45451 8.66632 2.95607 8.77778C3.46699 8.89133 4.14501 8.94136 5.05871 8.94136C5.9724 8.94136 6.65043 8.89133 7.16135 8.77778C7.66291 8.66632 7.95155 8.50488 8.13983 8.3166C8.32811 8.12832 8.48954 7.83968 8.60101 7.33812C8.71456 6.8272 8.76459 6.14918 8.76459 5.23548C8.76459 4.32178 8.71456 3.64376 8.60101 3.13284C8.48954 2.63128 8.32811 2.34264 8.13983 2.15436C7.95155 1.96608 7.66291 1.80465 7.16135 1.69318C6.65043 1.57963 5.9724 1.5296 5.05871 1.5296C4.14501 1.5296 3.46699 1.57963 2.95607 1.69318C2.45451 1.80465 2.16587 1.96608 1.97759 2.15436C1.78931 2.34264 1.62787 2.63128 1.51641 3.13284C1.40286 3.64376 1.35283 4.32178 1.35283 5.23548Z" stroke="white" stroke-width="1.64706" stroke-linecap="round" stroke-linejoin="round"/>
<path d="M1.35283 15.9413C1.35283 16.855 1.40286 17.533 1.51641 18.0439C1.62787 18.5455 1.78931 18.8341 1.97759 19.0224C2.16587 19.2107 2.45451 19.3721 2.95607 19.4836C3.46699 19.5971 4.14501 19.6472 5.05871 19.6472C5.9724 19.6472 6.65043 19.5971 7.16135 19.4836C7.66291 19.3721 7.95155 19.2107 8.13983 19.0224C8.32811 18.8341 8.48954 18.5455 8.60101 18.0439C8.71456 17.533 8.76459 16.855 8.76459 15.9413C8.76459 15.0276 8.71456 14.3496 8.60101 13.8387C8.48954 13.3371 8.32811 13.0484 8.13983 12.8602C7.95155 12.6719 7.66291 12.5105 7.16135 12.399C6.65043 12.2854 5.9724 12.2354 5.05871 12.2354C4.14501 12.2354 3.46699 12.2854 2.95607 12.399C2.45451 12.5105 2.16587 12.6719 1.97759 12.8602C1.78931 13.0484 1.62787 13.3371 1.51641 13.8387C1.40286 14.3496 1.35283 15.0276 1.35283 15.9413Z" stroke="white" stroke-width="1.64706" stroke-linecap="round" stroke-linejoin="round"/>
<path d="M12.0589 15.9413C12.0589 16.855 12.1089 17.533 12.2225 18.0439C12.3339 18.5455 12.4954 18.8341 12.6836 19.0224C12.8719 19.2107 13.1606 19.3721 13.6621 19.4836C14.173 19.5971 14.8511 19.6472 15.7648 19.6472C16.6785 19.6472 17.3565 19.5971 17.8674 19.4836C18.369 19.3721 18.6576 19.2107 18.8459 19.0224C19.0342 18.8341 19.1956 18.5455 19.3071 18.0439C19.4206 17.533 19.4706 16.855 19.4706 15.9413C19.4706 15.0276 19.4206 14.3496 19.3071 13.8387C19.1956 13.3371 19.0342 13.0484 18.8459 12.8602C18.6576 12.6719 18.369 12.5105 17.8674 12.399C17.3565 12.2854 16.6785 12.2354 15.7648 12.2354C14.8511 12.2354 14.173 12.2854 13.6621 12.399C13.1606 12.5105 12.8719 12.6719 12.6836 12.8602C12.4954 13.0484 12.3339 13.3371 12.2225 13.8387C12.1089 14.3496 12.0589 15.0276 12.0589 15.9413Z" stroke="white" stroke-width="1.64706" stroke-linecap="round" stroke-linejoin="round"/>
<path d="M15.7647 2.35303V5.23538M15.7647 8.11773V5.23538M15.7647 5.23538H18.647H12.8823" stroke="white" stroke-width="1.64706" stroke-linecap="round" stroke-linejoin="round"/>
</svg>
