<svg width="20" height="20" viewBox="0 0 20 20" fill="none" xmlns="http://www.w3.org/2000/svg">
<path d="M18.9464 1.60068C18.9391 1.56551 18.9219 1.53316 18.8969 1.50743C18.8718 1.4817 18.84 1.46366 18.805 1.45543C16.475 0.885556 11.0925 2.91609 8.1733 5.83313C7.65304 6.34913 7.17864 6.90939 6.75548 7.50761C5.85569 7.4262 4.95589 7.49475 4.18979 7.82896C2.02643 8.78017 1.397 11.2645 1.22132 12.3309C1.21181 12.3894 1.21587 12.4492 1.23321 12.5058C1.25054 12.5624 1.28068 12.6143 1.32128 12.6574C1.36188 12.7005 1.41186 12.7336 1.46735 12.7543C1.52283 12.775 1.58233 12.7826 1.64123 12.7765L5.11486 12.3952C5.11726 12.6572 5.13299 12.9189 5.16199 13.1793C5.18012 13.3593 5.26042 13.5273 5.38908 13.6545L6.73406 14.9995C6.86133 15.1282 7.02953 15.2085 7.20966 15.2265C7.4685 15.2554 7.72863 15.2711 7.98906 15.2737L7.60814 18.7443C7.6022 18.8031 7.60985 18.8625 7.63053 18.9179C7.6512 18.9733 7.68433 19.0232 7.72736 19.0638C7.77039 19.1043 7.82216 19.1344 7.87869 19.1518C7.93521 19.1691 7.99496 19.1732 8.05333 19.1638C9.12022 18.9924 11.6097 18.363 12.5553 16.2C12.8895 15.4331 12.9581 14.538 12.8809 13.6425C13.4809 13.2197 14.0428 12.7453 14.5601 12.2247C17.49 9.31105 19.5077 4.04683 18.9464 1.60068ZM11.9559 8.45025C11.6999 8.19439 11.5257 7.86839 11.455 7.51348C11.3844 7.15856 11.4206 6.79067 11.5591 6.45634C11.6975 6.122 11.932 5.83623 12.2329 5.63518C12.5338 5.43412 12.8875 5.32681 13.2494 5.32681C13.6113 5.32681 13.965 5.43412 14.2659 5.63518C14.5668 5.83623 14.8013 6.122 14.9398 6.45634C15.0782 6.79067 15.1144 7.15856 15.0438 7.51348C14.9732 7.86839 14.7989 8.19439 14.543 8.45025C14.3732 8.62035 14.1716 8.7553 13.9496 8.84738C13.7277 8.93946 13.4897 8.98686 13.2494 8.98686C13.0091 8.98686 12.7712 8.93946 12.5492 8.84738C12.3272 8.7553 12.1256 8.62035 11.9559 8.45025V8.45025Z" stroke="white" stroke-width="1.37111" stroke-linecap="round" stroke-linejoin="round"/>
</svg>
